<svg xmlns="http://www.w3.org/2000/svg" xmlns:xlink="http://www.w3.org/1999/xlink" width="3793" zoomAndPan="magnify" viewBox="0 0 2844.75 669.750002" height="893" preserveAspectRatio="xMidYMid meet" version="1.0"><defs><clipPath id="703e73d974"><path d="M 0.40625 0 L 2844.09375 0 L 2844.09375 669.5 L 0.40625 669.5 Z M 0.40625 0 " clip-rule="nonzero"/></clipPath><clipPath id="97273b4bc4"><path d="M 5.398438 54.332031 L 554 54.332031 L 554 664.402344 L 5.398438 664.402344 Z M 5.398438 54.332031 " clip-rule="nonzero"/></clipPath><clipPath id="54c6936bd2"><path d="M 361.179688 309.300781 C 369.558594 307.601562 378.015625 306.34375 386.53125 305.523438 C 395.117188 305.214844 396.878906 301.074219 396.878906 293.46875 C 396.46875 284.3125 396.878906 275.15625 396.878906 266 L 396.878906 205.441406 L 361.082031 309.300781 M 313.4375 350.835938 C 311.871094 350.296875 310.230469 349.949219 308.582031 349.796875 C 299.324219 351.605469 289.957031 353.265625 280.75 355.433594 C 220.285156 370.070312 162.714844 391.230469 113.832031 431.316406 C 81.195312 458.105469 56.414062 489.867188 48.867188 532.847656 C 42.140625 570.976562 59.214844 605.261719 94.082031 620.785156 C 140.113281 641.480469 198.933594 621.566406 221.433594 576.664062 C 250.121094 519.246094 275.253906 460.105469 296.695312 399.609375 C 302.382812 383.574219 307.660156 367.492188 313.457031 350.675781 M 393.6875 337.230469 C 379.984375 338.941406 366.21875 340.132812 352.675781 342.660156 C 349.984375 343.179688 347.507812 348.457031 346.105469 351.964844 C 327.644531 402.089844 309.332031 452.308594 291.015625 502.492188 C 280.421875 532 266.167969 560.058594 248.601562 586.03125 C 217.523438 633.242188 165.433594 662.390625 108.945312 664.191406 C 38.210938 668.230469 -8.191406 611.488281 8.984375 542.695312 C 17.679688 510.148438 34.351562 480.277344 57.503906 455.796875 C 109.644531 397.96875 175.648438 362.691406 248.164062 337.8125 C 270.246094 330.316406 293.054688 324.675781 315.667969 318.777344 C 321.605469 317.898438 326.503906 313.660156 328.234375 307.914062 C 350.996094 238.859375 374.117188 169.914062 396.929688 101.011719 C 402.097656 84.40625 409.132812 69.042969 425.066406 59.625 C 441 50.210938 446.640625 53.007812 446.378906 70.902344 C 446.378906 90.765625 444 110.625 442.859375 130.488281 C 441.621094 151.589844 440.332031 172.753906 439.601562 193.90625 C 438.511719 225.515625 437.84375 257.113281 437.121094 288.71875 C 437.121094 299.476562 437.59375 299.328125 448.558594 298.597656 C 480.726562 296.597656 512.925781 294.867188 545.132812 293.429688 C 553.769531 293.019531 556.046875 297.046875 551.550781 304.753906 C 542.652344 319.957031 530.859375 330.613281 511.515625 330.613281 C 490.363281 330.613281 469.199219 332.0625 448 332.585938 C 439.3125 332.585938 435.273438 335.484375 435.273438 345.410156 C 435.632812 411.515625 435.273438 477.621094 435.273438 543.675781 C 435.273438 555.929688 435.273438 568.347656 444.789062 578.382812 C 446.308594 581.371094 446.160156 584.949219 444.378906 587.796875 C 437.871094 595.777344 430.394531 602.914062 422.136719 609.0625 C 413.402344 614.910156 405.273438 611.800781 401.445312 601.875 C 397.796875 593.136719 395.636719 583.859375 395.089844 574.402344 C 394.050781 514.347656 393.847656 454.25 393.429688 394.191406 L 393.429688 337.292969 " clip-rule="nonzero"/></clipPath><clipPath id="cc61c454b8"><path d="M 0.398438 0.332031 L 549 0.332031 L 549 610.402344 L 0.398438 610.402344 Z M 0.398438 0.332031 " clip-rule="nonzero"/></clipPath><clipPath id="855ba47d9d"><path d="M 356.179688 255.300781 C 364.558594 253.601562 373.015625 252.34375 381.53125 251.523438 C 390.117188 251.214844 391.878906 247.074219 391.878906 239.46875 C 391.46875 230.3125 391.878906 221.15625 391.878906 212 L 391.878906 151.441406 L 356.082031 255.300781 M 308.4375 296.835938 C 306.871094 296.296875 305.230469 295.949219 303.582031 295.796875 C 294.324219 297.605469 284.957031 299.265625 275.75 301.433594 C 215.285156 316.070312 157.714844 337.230469 108.832031 377.316406 C 76.195312 404.105469 51.414062 435.867188 43.867188 478.847656 C 37.140625 516.976562 54.214844 551.261719 89.082031 566.785156 C 135.113281 587.480469 193.933594 567.566406 216.433594 522.664062 C 245.121094 465.246094 270.253906 406.105469 291.695312 345.609375 C 297.382812 329.574219 302.660156 313.492188 308.457031 296.675781 M 388.6875 283.230469 C 374.984375 284.941406 361.21875 286.132812 347.675781 288.660156 C 344.984375 289.179688 342.507812 294.457031 341.105469 297.964844 C 322.644531 348.089844 304.332031 398.308594 286.015625 448.492188 C 275.421875 478 261.167969 506.058594 243.601562 532.03125 C 212.523438 579.242188 160.433594 608.390625 103.945312 610.191406 C 33.210938 614.230469 -13.191406 557.488281 3.984375 488.695312 C 12.679688 456.148438 29.351562 426.277344 52.503906 401.796875 C 104.644531 343.96875 170.648438 308.691406 243.164062 283.8125 C 265.246094 276.316406 288.054688 270.675781 310.667969 264.777344 C 316.605469 263.898438 321.503906 259.660156 323.234375 253.914062 C 345.996094 184.859375 369.117188 115.914062 391.929688 47.011719 C 397.097656 30.40625 404.132812 15.042969 420.066406 5.625 C 436 -3.789062 441.640625 -0.992188 441.378906 16.902344 C 441.378906 36.765625 439 56.625 437.859375 76.488281 C 436.621094 97.589844 435.332031 118.753906 434.601562 139.90625 C 433.511719 171.515625 432.84375 203.113281 432.121094 234.71875 C 432.121094 245.476562 432.59375 245.328125 443.558594 244.597656 C 475.726562 242.597656 507.925781 240.867188 540.132812 239.429688 C 548.769531 239.019531 551.046875 243.046875 546.550781 250.753906 C 537.652344 265.957031 525.859375 276.613281 506.515625 276.613281 C 485.363281 276.613281 464.199219 278.0625 443 278.585938 C 434.3125 278.585938 430.273438 281.484375 430.273438 291.410156 C 430.632812 357.515625 430.273438 423.621094 430.273438 489.675781 C 430.273438 501.929688 430.273438 514.347656 439.789062 524.382812 C 441.308594 527.371094 441.160156 530.949219 439.378906 533.796875 C 432.871094 541.777344 425.394531 548.914062 417.136719 555.0625 C 408.402344 560.910156 400.273438 557.800781 396.445312 547.875 C 392.796875 539.136719 390.636719 529.859375 390.089844 520.402344 C 389.050781 460.347656 388.847656 400.25 388.429688 340.191406 L 388.429688 283.292969 " clip-rule="nonzero"/></clipPath><clipPath id="ee226c98ff"><rect x="0" width="549" y="0" height="611"/></clipPath><clipPath id="4f3063acc6"><path d="M 595 175.148438 L 1147 175.148438 L 1147 626 L 595 626 Z M 595 175.148438 " clip-rule="nonzero"/></clipPath><clipPath id="286c6345d1"><path d="M 891.832031 443.171875 L 894.371094 444.261719 C 907.777344 434.566406 918.464844 421.582031 925.410156 406.554688 C 926.140625 404.957031 925.410156 400.96875 924.429688 400.707031 C 922.203125 399.96875 919.753906 400.320312 917.8125 401.636719 C 909.957031 410.894531 902.300781 420.261719 895.210938 430.1875 C 893.390625 434.296875 892.332031 438.695312 892.054688 443.171875 M 809.964844 438.105469 C 798.21875 439.914062 792.839844 447.570312 787.933594 455.066406 C 776.554688 472.3125 765.570312 489.675781 754.984375 507.160156 C 746.347656 521.433594 736.671875 535.25 734.761719 552.730469 C 734.042969 559.660156 729.84375 560.339844 725.246094 555.210938 C 716.589844 547.09375 712.679688 535.109375 714.898438 523.453125 C 725.863281 461.847656 735.851562 400.039062 745.9375 338.332031 C 746.347656 335.902344 746.507812 333.164062 746.96875 329.535156 C 736.203125 329.894531 725.464844 330.824219 714.800781 332.324219 C 710.742188 334.0625 707.683594 337.542969 706.472656 341.789062 C 693.027344 394.140625 678.753906 446.332031 667.316406 499.09375 C 658.828125 538.246094 654.230469 578.28125 647.714844 618.058594 C 647.246094 620.957031 645.695312 625.714844 644.09375 625.914062 C 640.765625 626.054688 637.539062 624.816406 635.148438 622.496094 C 624.441406 611.628906 617.617188 600.042969 619.632812 582.980469 C 630.0625 501.75 646.554688 421.421875 668.976562 342.660156 C 669.546875 340.589844 669.695312 338.421875 670.214844 335.472656 L 616.9375 338.78125 C 606.070312 339.5 592.726562 324.96875 595.523438 314.519531 C 596.144531 312.140625 600.691406 309.351562 603.851562 309.351562 C 626.191406 307.234375 648.59375 305.265625 671.09375 304.175781 C 677.242188 304.515625 682.570312 299.957031 683.199219 293.828125 C 693.546875 257.621094 704.773438 221.726562 715.628906 185.71875 C 719.296875 173.613281 721.476562 173.152344 730.214844 181.941406 C 743.089844 194.824219 748.785156 208.480469 741.488281 227.203125 C 733.472656 247.894531 728.292969 269.46875 721.464844 290.519531 C 719.085938 297.96875 721.207031 300.035156 728.703125 299.984375 C 751.925781 299.984375 752.085938 299.984375 756.0625 277.273438 C 760.414062 252.34375 764.339844 227.363281 768.738281 202.484375 C 769.660156 199.644531 771 196.953125 772.71875 194.515625 C 775.488281 195.683594 778.09375 197.222656 780.476562 199.0625 C 788.132812 205.972656 791.402344 216.507812 789.011719 226.535156 C 784.824219 245.304688 782.335938 264.5 779.234375 283.433594 C 778.617188 287.050781 778.355469 290.78125 777.734375 295.949219 C 791.601562 295.066406 804.375 294.398438 817.199219 293.46875 C 827.289062 292.75 837.324219 291.550781 847.410156 290.929688 C 857.496094 290.308594 870.53125 307.84375 867.0625 316.480469 C 865.191406 319.1875 862.214844 320.917969 858.945312 321.1875 C 833.085938 323.359375 807.226562 325.425781 781.355469 326.875 C 774.367188 327.234375 771.476562 329.464844 770.339844 336.492188 C 764.699219 372.03125 758.59375 407.457031 752.285156 444.800781 C 760.5625 435.125 767.230469 426.4375 774.835938 418.683594 C 798.058594 394.730469 817.042969 399.597656 827.386719 431.355469 C 832.09375 445.890625 828.988281 460.066406 827.648438 474.492188 C 827.457031 482.148438 827.835938 489.804688 828.785156 497.402344 C 835.664062 494.292969 842.703125 491.503906 849.480469 487.984375 C 857.527344 484.507812 862.085938 475.910156 860.445312 467.292969 C 860.125 459.6875 861.613281 452.121094 864.792969 445.203125 C 876.796875 414.882812 899.199219 389.832031 928 374.546875 C 935.035156 370.769531 943.203125 365.183594 950.910156 371.5 C 958.617188 377.816406 956.078125 386.652344 953.648438 394.621094 C 945.792969 421.832031 927.789062 442.101562 906.738281 459.796875 C 896.390625 468.222656 896.859375 471.691406 908.90625 478.320312 C 918.601562 483.359375 929.980469 484.027344 940.195312 480.179688 C 961.558594 473.25 978.210938 459.027344 993.886719 443.710938 C 996.292969 440.402344 997.824219 436.546875 998.332031 432.488281 C 1005.109375 405.535156 1011.726562 378.488281 1018.40625 351.488281 C 1019.1875 348.539062 1020.214844 345.640625 1021.144531 342.691406 C 1033.152344 346.617188 1041.835938 360.484375 1039.25 371.550781 C 1035.730469 387.0625 1031.75 402.585938 1027.613281 419.5 C 1035.160156 409.414062 1041.21875 400.109375 1048.304688 391.882812 C 1059.742188 378.847656 1071.117188 380.085938 1077.164062 396.171875 C 1082.332031 410.183594 1084.460938 425.449219 1088.339844 440.035156 C 1089.96875 447.410156 1092.398438 454.589844 1095.578125 461.445312 C 1101.933594 473.703125 1114.039062 476.140625 1123.867188 466.613281 C 1129.316406 460.265625 1134.03125 453.328125 1137.929688 445.921875 C 1139.742188 443.074219 1141.398438 440.125 1144.609375 434.695312 C 1145.75 437.59375 1146.476562 440.644531 1146.777344 443.742188 C 1143.988281 459.988281 1138.453125 474.78125 1125.316406 485.898438 C 1114.140625 495.203125 1099.457031 494.074219 1087.300781 483.566406 C 1073.125 471.253906 1071.265625 454.089844 1068.628906 437.015625 C 1068.058594 433.394531 1067.539062 429.667969 1066.609375 423.359375 C 1063.949219 426.328125 1061.441406 429.4375 1059.109375 432.667969 C 1041.417969 460.257812 1023.804688 488.027344 1006.25 515.996094 C 999.574219 526.601562 996.734375 526.601562 989.855469 515.996094 C 983.21875 507.648438 981.269531 496.511719 984.6875 486.40625 C 985.9375 481.949219 986.9375 477.417969 987.6875 472.851562 C 980.960938 478.550781 973.824219 483.738281 966.324219 488.367188 C 950.179688 496.792969 933.738281 504.871094 916.921875 511.695312 C 906.578125 515.886719 895.871094 513.554688 885.476562 509.316406 C 881.617188 508.257812 877.507812 508.609375 873.890625 510.296875 C 865.824219 513.816406 858.375 519.292969 850.359375 522.351562 C 831.015625 529.589844 816.171875 521.683594 809.605469 502.082031 C 804.066406 485.476562 806.964844 468.921875 809.085938 452.320312 C 809.375 447.53125 809.375 442.722656 809.085938 437.933594 " clip-rule="nonzero"/></clipPath><clipPath id="8bd49d74ab"><path d="M 0 0.148438 L 551.9375 0.148438 L 551.9375 451 L 0 451 Z M 0 0.148438 " clip-rule="nonzero"/></clipPath><clipPath id="e2ccd855ef"><path d="M 296.832031 268.171875 L 299.371094 269.261719 C 312.777344 259.566406 323.464844 246.582031 330.410156 231.554688 C 331.140625 229.957031 330.410156 225.96875 329.429688 225.707031 C 327.203125 224.96875 324.753906 225.320312 322.8125 226.636719 C 314.957031 235.894531 307.300781 245.261719 300.210938 255.1875 C 298.390625 259.296875 297.332031 263.695312 297.054688 268.171875 M 214.964844 263.105469 C 203.21875 264.914062 197.839844 272.570312 192.933594 280.066406 C 181.554688 297.3125 170.570312 314.675781 159.984375 332.160156 C 151.347656 346.433594 141.671875 360.25 139.761719 377.730469 C 139.042969 384.660156 134.84375 385.339844 130.246094 380.210938 C 121.589844 372.09375 117.679688 360.109375 119.898438 348.453125 C 130.863281 286.847656 140.851562 225.039062 150.9375 163.332031 C 151.347656 160.902344 151.507812 158.164062 151.96875 154.535156 C 141.203125 154.894531 130.464844 155.824219 119.800781 157.324219 C 115.742188 159.0625 112.683594 162.542969 111.472656 166.789062 C 98.027344 219.140625 83.753906 271.332031 72.316406 324.09375 C 63.828125 363.246094 59.230469 403.28125 52.714844 443.058594 C 52.246094 445.957031 50.695312 450.714844 49.09375 450.914062 C 45.765625 451.054688 42.539062 449.816406 40.148438 447.496094 C 29.441406 436.628906 22.617188 425.042969 24.632812 407.980469 C 35.0625 326.75 51.554688 246.421875 73.976562 167.660156 C 74.546875 165.589844 74.695312 163.421875 75.214844 160.472656 L 21.9375 163.78125 C 11.070312 164.5 -2.273438 149.96875 0.523438 139.519531 C 1.144531 137.140625 5.691406 134.351562 8.851562 134.351562 C 31.191406 132.234375 53.59375 130.265625 76.09375 129.175781 C 82.242188 129.515625 87.570312 124.957031 88.199219 118.828125 C 98.546875 82.621094 109.773438 46.726562 120.628906 10.71875 C 124.296875 -1.386719 126.476562 -1.847656 135.214844 6.941406 C 148.089844 19.824219 153.785156 33.480469 146.488281 52.203125 C 138.472656 72.894531 133.292969 94.46875 126.464844 115.519531 C 124.085938 122.96875 126.207031 125.035156 133.703125 124.984375 C 156.925781 124.984375 157.085938 124.984375 161.0625 102.273438 C 165.414062 77.34375 169.339844 52.363281 173.738281 27.484375 C 174.660156 24.644531 176 21.953125 177.71875 19.515625 C 180.488281 20.683594 183.09375 22.222656 185.476562 24.0625 C 193.132812 30.972656 196.402344 41.507812 194.011719 51.535156 C 189.824219 70.304688 187.335938 89.5 184.234375 108.433594 C 183.617188 112.050781 183.355469 115.78125 182.734375 120.949219 C 196.601562 120.066406 209.375 119.398438 222.199219 118.46875 C 232.289062 117.75 242.324219 116.550781 252.410156 115.929688 C 262.496094 115.308594 275.53125 132.84375 272.0625 141.480469 C 270.191406 144.1875 267.214844 145.917969 263.945312 146.1875 C 238.085938 148.359375 212.226562 150.425781 186.355469 151.875 C 179.367188 152.234375 176.476562 154.464844 175.339844 161.492188 C 169.699219 197.03125 163.59375 232.457031 157.285156 269.800781 C 165.5625 260.125 172.230469 251.4375 179.835938 243.683594 C 203.058594 219.730469 222.042969 224.597656 232.386719 256.355469 C 237.09375 270.890625 233.988281 285.066406 232.648438 299.492188 C 232.457031 307.148438 232.835938 314.804688 233.785156 322.402344 C 240.664062 319.292969 247.703125 316.503906 254.480469 312.984375 C 262.527344 309.507812 267.085938 300.910156 265.445312 292.292969 C 265.125 284.6875 266.613281 277.121094 269.792969 270.203125 C 281.796875 239.882812 304.199219 214.832031 333 199.546875 C 340.035156 195.769531 348.203125 190.183594 355.910156 196.5 C 363.617188 202.816406 361.078125 211.652344 358.648438 219.621094 C 350.792969 246.832031 332.789062 267.101562 311.738281 284.796875 C 301.390625 293.222656 301.859375 296.691406 313.90625 303.320312 C 323.601562 308.359375 334.980469 309.027344 345.195312 305.179688 C 366.558594 298.25 383.210938 284.027344 398.886719 268.710938 C 401.292969 265.402344 402.824219 261.546875 403.332031 257.488281 C 410.109375 230.535156 416.726562 203.488281 423.40625 176.488281 C 424.1875 173.539062 425.214844 170.640625 426.144531 167.691406 C 438.152344 171.617188 446.835938 185.484375 444.25 196.550781 C 440.730469 212.0625 436.75 227.585938 432.613281 244.5 C 440.160156 234.414062 446.21875 225.109375 453.304688 216.882812 C 464.742188 203.847656 476.117188 205.085938 482.164062 221.171875 C 487.332031 235.183594 489.460938 250.449219 493.339844 265.035156 C 494.96875 272.410156 497.398438 279.589844 500.578125 286.445312 C 506.933594 298.703125 519.039062 301.140625 528.867188 291.613281 C 534.316406 285.265625 539.03125 278.328125 542.929688 270.921875 C 544.742188 268.074219 546.398438 265.125 549.609375 259.695312 C 550.75 262.59375 551.476562 265.644531 551.777344 268.742188 C 548.988281 284.988281 543.453125 299.78125 530.316406 310.898438 C 519.140625 320.203125 504.457031 319.074219 492.300781 308.566406 C 478.125 296.253906 476.265625 279.089844 473.628906 262.015625 C 473.058594 258.394531 472.539062 254.667969 471.609375 248.359375 C 468.949219 251.328125 466.441406 254.4375 464.109375 257.667969 C 446.417969 285.257812 428.804688 313.027344 411.25 340.996094 C 404.574219 351.601562 401.734375 351.601562 394.855469 340.996094 C 388.21875 332.648438 386.269531 321.511719 389.6875 311.40625 C 390.9375 306.949219 391.9375 302.417969 392.6875 297.851562 C 385.960938 303.550781 378.824219 308.738281 371.324219 313.367188 C 355.179688 321.792969 338.738281 329.871094 321.921875 336.695312 C 311.578125 340.886719 300.871094 338.554688 290.476562 334.316406 C 286.617188 333.257812 282.507812 333.609375 278.890625 335.296875 C 270.824219 338.816406 263.375 344.292969 255.359375 347.351562 C 236.015625 354.589844 221.171875 346.683594 214.605469 327.082031 C 209.066406 310.476562 211.964844 293.921875 214.085938 277.320312 C 214.375 272.53125 214.375 267.722656 214.085938 262.933594 " clip-rule="nonzero"/></clipPath><clipPath id="3733408842"><rect x="0" width="552" y="0" height="451"/></clipPath><clipPath id="43bea7b7c7"><path d="M 1114 175.148438 L 1387 175.148438 L 1387 627 L 1114 627 Z M 1114 175.148438 " clip-rule="nonzero"/></clipPath><clipPath id="129e9bb20d"><path d="M 1188.953125 335.222656 L 1135.570312 338.632812 C 1124.867188 339.300781 1111.472656 324.40625 1114.421875 314.171875 C 1115.140625 311.742188 1119.589844 309.363281 1122.90625 309.003906 C 1144.9375 306.882812 1166.980469 304.914062 1189.0625 303.835938 C 1195.441406 304.335938 1201.109375 299.816406 1202.046875 293.488281 C 1212.394531 257.28125 1223.71875 221.074219 1234.734375 184.5 C 1238.042969 173.683594 1240.371094 173.222656 1248.390625 181.082031 C 1261.585938 194.015625 1267.734375 207.871094 1260.234375 227.011719 C 1252.21875 247.707031 1247.101562 269.21875 1240.273438 290.269531 C 1237.894531 297.667969 1239.964844 300.195312 1247.460938 299.6875 C 1277.410156 297.40625 1307.359375 295.339844 1337.308594 293.117188 C 1347.035156 292.390625 1356.808594 291.308594 1366.585938 290.738281 C 1376.363281 290.167969 1389.496094 308.382812 1385.828125 316.601562 C 1384.097656 319.058594 1381.378906 320.648438 1378.382812 320.949219 C 1353.191406 323.117188 1328 324.988281 1302.761719 326.734375 C 1281.65625 328.285156 1260.554688 329.734375 1239.445312 330.925781 C 1232.007812 330.566406 1225.488281 335.84375 1224.289062 343.179688 C 1198.640625 428.867188 1179.90625 516.484375 1168.269531 605.171875 C 1167.648438 610.339844 1167.179688 615.207031 1166.199219 620.175781 C 1164.851562 627.265625 1161.023438 628.972656 1155.855469 624.003906 C 1144.21875 613.1875 1136.300781 601.292969 1138.632812 583.398438 C 1149.039062 501.890625 1165.570312 421.28125 1188.082031 342.261719 C 1188.5625 339.953125 1188.902344 337.621094 1189.121094 335.28125 " clip-rule="nonzero"/></clipPath><clipPath id="47a40d54aa"><path d="M 0 0.148438 L 273 0.148438 L 273 452 L 0 452 Z M 0 0.148438 " clip-rule="nonzero"/></clipPath><clipPath id="2c8b8dedb2"><path d="M 74.953125 160.222656 L 21.570312 163.632812 C 10.867188 164.300781 -2.527344 149.40625 0.421875 139.171875 C 1.140625 136.742188 5.589844 134.363281 8.90625 134.003906 C 30.9375 131.882812 52.980469 129.914062 75.0625 128.835938 C 81.441406 129.335938 87.109375 124.816406 88.046875 118.488281 C 98.394531 82.28125 109.71875 46.074219 120.734375 9.5 C 124.042969 -1.316406 126.371094 -1.777344 134.390625 6.082031 C 147.585938 19.015625 153.734375 32.871094 146.234375 52.011719 C 138.21875 72.707031 133.101562 94.21875 126.273438 115.269531 C 123.894531 122.667969 125.964844 125.195312 133.460938 124.6875 C 163.410156 122.40625 193.359375 120.339844 223.308594 118.117188 C 233.035156 117.390625 242.808594 116.308594 252.585938 115.738281 C 262.363281 115.167969 275.496094 133.382812 271.828125 141.601562 C 270.097656 144.058594 267.378906 145.648438 264.382812 145.949219 C 239.191406 148.117188 214 149.988281 188.761719 151.734375 C 167.65625 153.285156 146.554688 154.734375 125.445312 155.925781 C 118.007812 155.566406 111.488281 160.84375 110.289062 168.179688 C 84.640625 253.867188 65.90625 341.484375 54.269531 430.171875 C 53.648438 435.339844 53.179688 440.207031 52.199219 445.175781 C 50.851562 452.265625 47.023438 453.972656 41.855469 449.003906 C 30.21875 438.1875 22.300781 426.292969 24.632812 408.398438 C 35.039062 326.890625 51.570312 246.28125 74.082031 167.261719 C 74.5625 164.953125 74.902344 162.621094 75.121094 160.28125 " clip-rule="nonzero"/></clipPath><clipPath id="15f1b8ccf8"><rect x="0" width="273" y="0" height="452"/></clipPath><clipPath id="2426206d48"><path d="M 1240.515625 358 L 1461 358 L 1461 534 L 1240.515625 534 Z M 1240.515625 358 " clip-rule="nonzero"/></clipPath><clipPath id="80d5ebc810"><path d="M 1382.140625 390.5625 C 1367.457031 418.960938 1355.859375 446.371094 1356.28125 477.359375 C 1356.28125 490.863281 1363.777344 498.050781 1377.433594 497.0625 C 1401.53125 495.453125 1418.816406 481.128906 1434.332031 464.316406 C 1438.070312 459.257812 1442.417969 454.667969 1447.265625 450.660156 C 1450.683594 448.539062 1456.324219 449.832031 1460.972656 449.570312 C 1460.300781 453.550781 1460.972656 458.417969 1458.851562 461.414062 C 1438.058594 492.394531 1406.859375 514.90625 1370.914062 524.882812 C 1355.398438 529.28125 1341.484375 527.519531 1330.730469 514.535156 C 1322.710938 519.453125 1315.523438 524.621094 1307.707031 528.550781 C 1285.304688 539.617188 1264.3125 533.210938 1251.527344 511.738281 C 1241.152344 494.054688 1238.195312 472.980469 1243.300781 453.128906 C 1246.96875 436.886719 1252.71875 421.0625 1257.738281 405.125 C 1258.875 402.308594 1260.277344 399.609375 1261.925781 397.058594 C 1276.460938 403.058594 1282.878906 417.132812 1277.4375 430.117188 C 1269.101562 449.960938 1264.285156 471.101562 1263.214844 492.605469 C 1262.90625 499.839844 1265.695312 504.351562 1272.519531 503.308594 C 1301.78125 501.519531 1326.289062 480.527344 1332.570312 451.890625 C 1337.246094 428.539062 1346.882812 406.445312 1360.808594 387.132812 C 1368.175781 377.738281 1377.011719 369.601562 1386.976562 363.03125 C 1395.835938 355.816406 1408.871094 357.15625 1416.085938 366.011719 C 1416.808594 366.890625 1417.445312 367.832031 1418.015625 368.820312 C 1425.585938 380.765625 1431.710938 393.5625 1436.28125 406.945312 C 1439.589844 416.003906 1421.957031 434.355469 1412.4375 432.546875 C 1409.488281 431.976562 1406.441406 427.378906 1405.140625 424.21875 C 1401.042969 410.964844 1393.125 399.21875 1382.378906 390.441406 " clip-rule="nonzero"/></clipPath><clipPath id="1fb16daf90"><path d="M 0.515625 0 L 220.980469 0 L 220.980469 176 L 0.515625 176 Z M 0.515625 0 " clip-rule="nonzero"/></clipPath><clipPath id="636cd709b8"><path d="M 142.140625 32.5625 C 127.457031 60.960938 115.859375 88.371094 116.28125 119.359375 C 116.28125 132.863281 123.777344 140.050781 137.433594 139.0625 C 161.53125 137.453125 178.816406 123.128906 194.332031 106.316406 C 198.070312 101.257812 202.417969 96.667969 207.265625 92.660156 C 210.683594 90.539062 216.324219 91.832031 220.972656 91.570312 C 220.300781 95.550781 220.972656 100.417969 218.851562 103.414062 C 198.058594 134.394531 166.859375 156.90625 130.914062 166.882812 C 115.398438 171.28125 101.484375 169.519531 90.730469 156.535156 C 82.710938 161.453125 75.523438 166.621094 67.707031 170.550781 C 45.304688 181.617188 24.3125 175.210938 11.527344 153.738281 C 1.152344 136.054688 -1.804688 114.980469 3.300781 95.128906 C 6.96875 78.886719 12.71875 63.0625 17.738281 47.125 C 18.875 44.308594 20.277344 41.609375 21.925781 39.058594 C 36.460938 45.058594 42.878906 59.132812 37.4375 72.117188 C 29.101562 91.960938 24.285156 113.101562 23.214844 134.605469 C 22.90625 141.839844 25.695312 146.351562 32.519531 145.308594 C 61.78125 143.519531 86.289062 122.527344 92.570312 93.890625 C 97.246094 70.539062 106.882812 48.445312 120.808594 29.132812 C 128.175781 19.738281 137.011719 11.601562 146.976562 5.03125 C 155.835938 -2.183594 168.871094 -0.84375 176.085938 8.011719 C 176.808594 8.890625 177.445312 9.832031 178.015625 10.820312 C 185.585938 22.765625 191.710938 35.5625 196.28125 48.945312 C 199.589844 58.003906 181.957031 76.355469 172.4375 74.546875 C 169.488281 73.976562 166.441406 69.378906 165.140625 66.21875 C 161.042969 52.964844 153.125 41.21875 142.378906 32.441406 " clip-rule="nonzero"/></clipPath><clipPath id="638b4dd359"><rect x="0" width="221" y="0" height="176"/></clipPath><clipPath id="9080d085c2"><path d="M 460.703125 382.832031 L 625 382.832031 L 625 526 L 460.703125 526 Z M 460.703125 382.832031 " clip-rule="nonzero"/></clipPath><clipPath id="f044c33303"><path d="M 536.585938 486.875 C 531.097656 492.792969 525.28125 498.390625 519.152344 503.628906 C 512.035156 509.347656 504.207031 514.125 495.871094 517.855469 C 478.957031 524.683594 464.523438 517.074219 462.09375 499.082031 C 460.445312 485.328125 460.585938 471.421875 462.503906 457.699219 C 464.363281 443.0625 468.859375 428.726562 472.070312 414.195312 C 474.859375 401.257812 484.746094 394.851562 495.402344 389.832031 C 501.96875 386.722656 503.886719 391.023438 502.636719 397.128906 C 499.738281 411.714844 496.222656 426.199219 494.210938 440.894531 C 492.671875 452.148438 492.292969 463.535156 493.070312 474.878906 C 493.660156 480.289062 496.640625 485.148438 501.1875 488.125 C 506.296875 488.644531 511.316406 486.546875 514.535156 482.539062 C 524.878906 467.023438 533.925781 450.828125 542.671875 434.484375 C 546.851562 426.300781 550.210938 417.722656 552.710938 408.886719 C 556.558594 397.667969 565.035156 388.652344 575.992188 384.105469 C 578.570312 383.296875 581.257812 382.90625 583.957031 382.964844 C 584.476562 385.585938 584.667969 388.261719 584.527344 390.933594 C 579.359375 415.402344 574.179688 439.765625 569.683594 464.335938 C 568.464844 471.453125 568.882812 478.757812 570.921875 485.695312 C 573.972656 495.683594 581.269531 497.023438 589.027344 490.046875 C 593.265625 486.265625 596.683594 481.667969 600.722656 477.578125 C 604.121094 473.453125 608.097656 469.832031 612.515625 466.824219 C 616.386719 465.574219 620.464844 465.105469 624.523438 465.425781 C 624.261719 469.253906 625.503906 474.222656 623.542969 476.648438 C 607.460938 496.773438 589.976562 515.546875 564.675781 524.292969 C 556.738281 528.082031 547.222656 524.722656 543.433594 516.773438 C 542.894531 515.644531 542.484375 514.445312 542.222656 513.214844 C 539.863281 504.550781 537.976562 495.761719 536.585938 486.886719 " clip-rule="nonzero"/></clipPath><clipPath id="57d7352a01"><path d="M 0.703125 0.898438 L 165 0.898438 L 165 144 L 0.703125 144 Z M 0.703125 0.898438 " clip-rule="nonzero"/></clipPath><clipPath id="5a77c25ef2"><path d="M 76.585938 104.875 C 71.097656 110.792969 65.28125 116.390625 59.152344 121.628906 C 52.035156 127.347656 44.207031 132.125 35.871094 135.855469 C 18.957031 142.683594 4.523438 135.074219 2.09375 117.082031 C 0.445312 103.328125 0.585938 89.421875 2.503906 75.699219 C 4.363281 61.0625 8.859375 46.726562 12.070312 32.195312 C 14.859375 19.257812 24.746094 12.851562 35.402344 7.832031 C 41.96875 4.722656 43.886719 9.023438 42.636719 15.128906 C 39.738281 29.714844 36.222656 44.199219 34.210938 58.894531 C 32.671875 70.148438 32.292969 81.535156 33.070312 92.878906 C 33.660156 98.289062 36.640625 103.148438 41.1875 106.125 C 46.296875 106.644531 51.316406 104.546875 54.535156 100.539062 C 64.878906 85.023438 73.925781 68.828125 82.671875 52.484375 C 86.851562 44.300781 90.210938 35.722656 92.710938 26.886719 C 96.558594 15.667969 105.035156 6.652344 115.992188 2.105469 C 118.570312 1.296875 121.257812 0.90625 123.957031 0.964844 C 124.476562 3.585938 124.667969 6.261719 124.527344 8.933594 C 119.359375 33.402344 114.179688 57.765625 109.683594 82.335938 C 108.464844 89.453125 108.882812 96.757812 110.921875 103.695312 C 113.972656 113.683594 121.269531 115.023438 129.027344 108.046875 C 133.265625 104.265625 136.683594 99.667969 140.722656 95.578125 C 144.121094 91.453125 148.097656 87.832031 152.515625 84.824219 C 156.386719 83.574219 160.464844 83.105469 164.523438 83.425781 C 164.261719 87.253906 165.503906 92.222656 163.542969 94.648438 C 147.460938 114.773438 129.976562 133.546875 104.675781 142.292969 C 96.738281 146.082031 87.222656 142.722656 83.433594 134.773438 C 82.894531 133.644531 82.484375 132.445312 82.222656 131.214844 C 79.863281 122.550781 77.976562 113.761719 76.585938 104.886719 " clip-rule="nonzero"/></clipPath><clipPath id="71ebaf39f5"><rect x="0" width="165" y="0" height="144"/></clipPath><clipPath id="8fb03fa1db"><path d="M 1247.507812 336 L 1301.425781 336 L 1301.425781 379.835938 L 1247.507812 379.835938 Z M 1247.507812 336 " clip-rule="nonzero"/></clipPath><clipPath id="ca00d0a3c9"><path d="M 1279.519531 336.613281 C 1293.582031 336.972656 1304.859375 354.976562 1300.210938 363.921875 C 1299.570312 365.351562 1298.5 366.542969 1297.160156 367.339844 C 1287.335938 371.480469 1277.558594 375.667969 1267.472656 379.1875 C 1264.523438 380.027344 1261.355469 379.40625 1258.9375 377.527344 C 1254.667969 371.441406 1250.980469 364.960938 1247.921875 358.183594 C 1247.390625 355.773438 1248.160156 353.265625 1249.941406 351.566406 C 1260.644531 345.71875 1271.660156 340.5 1279.417969 336.621094 " clip-rule="nonzero"/></clipPath><clipPath id="343f5839b2"><path d="M 0.507812 0.59375 L 54.425781 0.59375 L 54.425781 43.835938 L 0.507812 43.835938 Z M 0.507812 0.59375 " clip-rule="nonzero"/></clipPath><clipPath id="ab2ca7e3e3"><path d="M 32.519531 0.613281 C 46.582031 0.972656 57.859375 18.976562 53.210938 27.921875 C 52.570312 29.351562 51.5 30.542969 50.160156 31.339844 C 40.335938 35.480469 30.558594 39.667969 20.472656 43.1875 C 17.523438 44.027344 14.355469 43.40625 11.9375 41.527344 C 7.667969 35.441406 3.980469 28.960938 0.921875 22.183594 C 0.390625 19.773438 1.160156 17.265625 2.941406 15.566406 C 13.644531 9.71875 24.660156 4.5 32.417969 0.621094 " clip-rule="nonzero"/></clipPath><clipPath id="c18cbc5878"><rect x="0" width="55" y="0" height="44"/></clipPath><clipPath id="d75064e97d"><path d="M 2400.105469 333.476562 L 2839.417969 333.476562 L 2839.417969 527 L 2400.105469 527 Z M 2400.105469 333.476562 " clip-rule="nonzero"/></clipPath><clipPath id="dcdc626af3"><path d="M 2590.96875 443.175781 L 2593.65625 445.292969 C 2601.832031 435.726562 2610.210938 426.261719 2618.125 416.375 C 2620.464844 413.066406 2622.214844 409.367188 2623.304688 405.457031 C 2623.753906 403.597656 2623.203125 401.640625 2621.855469 400.289062 C 2620.164062 399.660156 2618.285156 399.769531 2616.675781 400.601562 C 2604.523438 406.078125 2590.085938 429.878906 2590.816406 442.964844 M 2707.773438 497.324219 L 2709.171875 495.203125 C 2710.773438 495.203125 2712.382812 495.203125 2713.929688 494.894531 C 2720.910156 493.753906 2729.914062 491.996094 2729.445312 484.1875 C 2728.976562 476.382812 2724.265625 467.433594 2721.070312 459.046875 C 2715.898438 461.328125 2710.101562 463.398438 2704.773438 465.976562 C 2702.457031 467.015625 2700.515625 468.726562 2699.1875 470.894531 C 2696.449219 476.0625 2691.429688 482.949219 2692.929688 487.089844 C 2694.429688 491.226562 2702.496094 494.015625 2707.625 497.433594 M 2838.953125 385.085938 C 2833.757812 398.519531 2822.832031 408.9375 2809.164062 413.484375 C 2791.210938 420.261719 2773.886719 428.640625 2755.316406 436.707031 C 2766.640625 457.398438 2760.484375 474.152344 2749.007812 490.238281 C 2735.921875 508.699219 2719.578125 522.875 2696.507812 525.921875 C 2688.371094 526.554688 2680.203125 525.132812 2672.765625 521.785156 C 2660.710938 516.605469 2658.332031 507.921875 2662.988281 490.746094 C 2660.199219 492.097656 2658.28125 493.125 2656.210938 494.003906 C 2642.296875 499.953125 2628.902344 507.710938 2614.417969 511.4375 C 2590.15625 517.6875 2565.425781 503.070312 2559.179688 478.8125 C 2557.371094 471.765625 2557.28125 464.375 2558.917969 457.277344 C 2560.058594 451.480469 2561.917969 445.792969 2563.058594 441.503906 L 2530.257812 430.6875 C 2527.421875 436.6875 2524.210938 444.445312 2520.273438 451.839844 C 2509.515625 472.171875 2499.222656 492.855469 2487.066406 512.359375 C 2482.136719 519.144531 2474.980469 523.984375 2466.84375 526.011719 C 2458.207031 528.183594 2450.140625 520.84375 2447.601562 508.628906 C 2444.550781 494.195312 2443.460938 479.300781 2441.8125 464.605469 C 2440.3125 450.792969 2439.742188 436.886719 2437.824219 423.222656 C 2435.605469 407.707031 2432.65625 404.910156 2417.132812 401.960938 C 2409.585938 400.511719 2398.25 383.648438 2400.6875 376.71875 C 2401.90625 374.28125 2404.046875 372.421875 2406.636719 371.542969 C 2417.75 367.5625 2428.566406 372.011719 2437.675781 384.214844 C 2450.039062 401.082031 2454.589844 420.84375 2457.695312 441.113281 C 2459.867188 455.128906 2461.054688 469.253906 2462.863281 486.167969 C 2468.0625 480.75 2472.902344 475.003906 2477.347656 468.945312 C 2491.605469 447.601562 2502.480469 424.191406 2509.578125 399.53125 C 2510.976562 394.363281 2509.109375 388.15625 2510.246094 382.71875 C 2511.175781 378.320312 2513.554688 371.960938 2516.765625 370.921875 C 2521.542969 370.25 2526.332031 372.039062 2529.488281 375.679688 C 2534.226562 383.015625 2537.367188 391.265625 2538.695312 399.890625 C 2539.574219 407.757812 2542.675781 410.238281 2549.453125 411.214844 C 2566.457031 414.535156 2583.988281 409.007812 2596.003906 396.523438 C 2607.300781 385.945312 2620.207031 377.21875 2634.230469 370.660156 C 2646.4375 364.503906 2654.921875 370.921875 2652.742188 384.367188 C 2651.066406 396.523438 2646.777344 408.167969 2640.179688 418.503906 C 2628.613281 433.816406 2615.738281 448.101562 2601.691406 461.175781 C 2595.894531 466.867188 2595.894531 469.863281 2601.691406 474.421875 C 2612.507812 483.488281 2627.722656 485.148438 2640.226562 478.609375 C 2655.664062 470.125 2670.507812 460.597656 2684.660156 450.113281 C 2690.609375 446.074219 2695.835938 440.957031 2701.527344 436.246094 C 2686.472656 400.039062 2704.214844 360.675781 2744.769531 342.164062 C 2753.195312 338.582031 2761.992188 335.933594 2771 334.246094 C 2778.707031 332.585938 2781.347656 336.15625 2777.675781 343.300781 C 2773.050781 354.316406 2763.164062 362.234375 2751.398438 364.355469 C 2738.171875 366.332031 2727.65625 376.5 2725.226562 389.644531 C 2723.648438 400.582031 2728.375 411.464844 2737.433594 417.785156 C 2740.910156 419.261719 2744.859375 419.144531 2748.238281 417.472656 C 2774.097656 406.199219 2799.550781 394.351562 2825.308594 383.078125 C 2829.777344 381.828125 2834.375 381.167969 2839.015625 381.109375 Z M 2838.953125 385.085938 " clip-rule="nonzero"/></clipPath><clipPath id="b94ea7c3e8"><path d="M 0.105469 0.476562 L 439.027344 0.476562 L 439.027344 194 L 0.105469 194 Z M 0.105469 0.476562 " clip-rule="nonzero"/></clipPath><clipPath id="747207c509"><path d="M 190.96875 110.175781 L 193.65625 112.292969 C 201.832031 102.726562 210.210938 93.261719 218.125 83.375 C 220.464844 80.066406 222.214844 76.367188 223.304688 72.457031 C 223.753906 70.597656 223.203125 68.640625 221.855469 67.289062 C 220.164062 66.660156 218.285156 66.769531 216.675781 67.601562 C 204.523438 73.078125 190.085938 96.878906 190.816406 109.964844 M 307.773438 164.324219 L 309.171875 162.203125 C 310.773438 162.203125 312.382812 162.203125 313.929688 161.894531 C 320.910156 160.753906 329.914062 158.996094 329.445312 151.1875 C 328.976562 143.382812 324.265625 134.433594 321.070312 126.046875 C 315.898438 128.328125 310.101562 130.398438 304.773438 132.976562 C 302.457031 134.015625 300.515625 135.726562 299.1875 137.894531 C 296.449219 143.0625 291.429688 149.949219 292.929688 154.089844 C 294.429688 158.226562 302.496094 161.015625 307.625 164.433594 M 438.953125 52.085938 C 433.757812 65.519531 422.832031 75.9375 409.164062 80.484375 C 391.210938 87.261719 373.886719 95.640625 355.316406 103.707031 C 366.640625 124.398438 360.484375 141.152344 349.007812 157.238281 C 335.921875 175.699219 319.578125 189.875 296.507812 192.921875 C 288.371094 193.554688 280.203125 192.132812 272.765625 188.785156 C 260.710938 183.605469 258.332031 174.921875 262.988281 157.746094 C 260.199219 159.097656 258.28125 160.125 256.210938 161.003906 C 242.296875 166.953125 228.902344 174.710938 214.417969 178.4375 C 190.15625 184.6875 165.425781 170.070312 159.179688 145.8125 C 157.371094 138.765625 157.28125 131.375 158.917969 124.277344 C 160.058594 118.480469 161.917969 112.792969 163.058594 108.503906 L 130.257812 97.6875 C 127.421875 103.6875 124.210938 111.445312 120.273438 118.839844 C 109.515625 139.171875 99.222656 159.855469 87.066406 179.359375 C 82.136719 186.144531 74.980469 190.984375 66.84375 193.011719 C 58.207031 195.183594 50.140625 187.84375 47.601562 175.628906 C 44.550781 161.195312 43.460938 146.300781 41.8125 131.605469 C 40.3125 117.792969 39.742188 103.886719 37.824219 90.222656 C 35.605469 74.707031 32.65625 71.910156 17.132812 68.960938 C 9.585938 67.511719 -1.75 50.648438 0.6875 43.71875 C 1.90625 41.28125 4.046875 39.421875 6.636719 38.542969 C 17.75 34.5625 28.566406 39.011719 37.675781 51.214844 C 50.039062 68.082031 54.589844 87.84375 57.695312 108.113281 C 59.867188 122.128906 61.054688 136.253906 62.863281 153.167969 C 68.0625 147.75 72.902344 142.003906 77.347656 135.945312 C 91.605469 114.601562 102.480469 91.191406 109.578125 66.53125 C 110.976562 61.363281 109.109375 55.15625 110.246094 49.71875 C 111.175781 45.320312 113.554688 38.960938 116.765625 37.921875 C 121.542969 37.25 126.332031 39.039062 129.488281 42.679688 C 134.226562 50.015625 137.367188 58.265625 138.695312 66.890625 C 139.574219 74.757812 142.675781 77.238281 149.453125 78.214844 C 166.457031 81.535156 183.988281 76.007812 196.003906 63.523438 C 207.300781 52.945312 220.207031 44.21875 234.230469 37.660156 C 246.4375 31.503906 254.921875 37.921875 252.742188 51.367188 C 251.066406 63.523438 246.777344 75.167969 240.179688 85.503906 C 228.613281 100.816406 215.738281 115.101562 201.691406 128.175781 C 195.894531 133.867188 195.894531 136.863281 201.691406 141.421875 C 212.507812 150.488281 227.722656 152.148438 240.226562 145.609375 C 255.664062 137.125 270.507812 127.597656 284.660156 117.113281 C 290.609375 113.074219 295.835938 107.957031 301.527344 103.246094 C 286.472656 67.039062 304.214844 27.675781 344.769531 9.164062 C 353.195312 5.582031 361.992188 2.933594 371 1.246094 C 378.707031 -0.414062 381.347656 3.15625 377.675781 10.300781 C 373.050781 21.316406 363.164062 29.234375 351.398438 31.355469 C 338.171875 33.332031 327.65625 43.5 325.226562 56.644531 C 323.648438 67.582031 328.375 78.464844 337.433594 84.785156 C 340.910156 86.261719 344.859375 86.144531 348.238281 84.472656 C 374.097656 73.199219 399.550781 61.351562 425.308594 50.078125 C 429.777344 48.828125 434.375 48.167969 439.015625 48.109375 Z M 438.953125 52.085938 " clip-rule="nonzero"/></clipPath><clipPath id="9f9ed89bfa"><rect x="0" width="440" y="0" height="194"/></clipPath><clipPath id="0a122e5066"><path d="M 1549.441406 5 L 1953.804688 5 L 1953.804688 654 L 1549.441406 654 Z M 1549.441406 5 " clip-rule="nonzero"/></clipPath><clipPath id="6cdad667ed"><path d="M 1848.132812 265.492188 C 1834.890625 303.046875 1821.914062 340.644531 1808.25 378.046875 C 1787.21875 435.597656 1765.855469 493.085938 1744.164062 550.503906 C 1740.003906 561.46875 1734.804688 572.027344 1728.648438 582.003906 C 1718.300781 598.867188 1706.925781 598.246094 1696.371094 581.332031 C 1687.675781 566.097656 1683.527344 548.683594 1684.425781 531.160156 C 1684.683594 448.664062 1685.613281 366.152344 1686.445312 283.652344 C 1686.882812 278.234375 1686.882812 272.777344 1686.445312 267.359375 C 1685.203125 270.777344 1683.90625 274.1875 1682.824219 277.707031 C 1647.4375 388.046875 1612.09375 498.554688 1576.785156 609.210938 C 1576.003906 611.640625 1575.90625 614.800781 1574.246094 616.199219 C 1572.585938 617.597656 1568.148438 619.457031 1566.4375 618.527344 C 1552.683594 609.902344 1546.335938 593.179688 1550.925781 577.605469 C 1589.160156 458.089844 1627.386719 338.542969 1665.601562 219 C 1670.769531 202.132812 1674.96875 184.859375 1680.1875 167.949219 C 1682.625 160.121094 1685.792969 152.53125 1689.652344 145.296875 C 1694.832031 135.988281 1699.167969 135.828125 1706.257812 143.957031 C 1714.792969 153.113281 1719.332031 165.277344 1718.882812 177.785156 C 1717.484375 212.492188 1715.722656 247.246094 1714.175781 281.953125 C 1713.246094 302.648438 1712.003906 323.589844 1711.644531 344.492188 C 1710.714844 402.941406 1710.195312 461.449219 1709.527344 519.945312 C 1709.4375 521.953125 1710.324219 523.882812 1711.90625 525.113281 C 1716.992188 515.855469 1721.601562 506.339844 1725.71875 496.613281 C 1765.703125 387.003906 1805.738281 277.457031 1845.054688 167.636719 C 1863.320312 116.738281 1879.972656 65.277344 1897.347656 14.066406 C 1901.175781 2.789062 1903.554688 2.269531 1911.359375 11.214844 C 1921.828125 21.921875 1926.113281 37.226562 1922.738281 51.820312 C 1903.035156 152.582031 1884.300781 253.546875 1865.835938 354.566406 C 1851.914062 428.171875 1843.035156 502.640625 1839.246094 577.453125 C 1839.585938 589.320312 1841.964844 601.046875 1846.285156 612.113281 C 1847.902344 618.148438 1854.121094 621.738281 1860.167969 620.109375 C 1861.339844 619.796875 1862.449219 619.289062 1863.457031 618.628906 C 1874.382812 613.089844 1884.429688 605.964844 1893.246094 597.476562 C 1908.140625 581.234375 1920.867188 562.980469 1934.632812 545.757812 C 1937.222656 542.597656 1942.550781 537.589844 1944 538.359375 C 1948.347656 540.40625 1951.675781 544.148438 1953.203125 548.703125 C 1954.335938 555.511719 1953.464844 562.5 1950.726562 568.828125 C 1937.351562 596.117188 1917.886719 619.976562 1893.828125 638.550781 C 1887.738281 643.089844 1881.140625 646.886719 1874.175781 649.878906 C 1853.84375 658.773438 1837.039062 653.085938 1825.8125 633.894531 C 1814.867188 615.191406 1809.347656 593.796875 1809.878906 572.136719 C 1810.339844 544.667969 1812.308594 517.246094 1815.777344 489.996094 C 1823.695312 429.890625 1833 369.941406 1841.898438 309.945312 C 1844.066406 295.25 1846.753906 280.664062 1849.242188 266.03125 L 1848.152344 265.410156 " clip-rule="nonzero"/></clipPath><clipPath id="64d85bad34"><path d="M 0.441406 0 L 404.804688 0 L 404.804688 649 L 0.441406 649 Z M 0.441406 0 " clip-rule="nonzero"/></clipPath><clipPath id="b6e16572de"><path d="M 299.132812 260.492188 C 285.890625 298.046875 272.914062 335.644531 259.25 373.046875 C 238.21875 430.597656 216.855469 488.085938 195.164062 545.503906 C 191.003906 556.46875 185.804688 567.027344 179.648438 577.003906 C 169.300781 593.867188 157.925781 593.246094 147.371094 576.332031 C 138.675781 561.097656 134.527344 543.683594 135.425781 526.160156 C 135.683594 443.664062 136.613281 361.152344 137.445312 278.652344 C 137.882812 273.234375 137.882812 267.777344 137.445312 262.359375 C 136.203125 265.777344 134.90625 269.1875 133.824219 272.707031 C 98.4375 383.046875 63.09375 493.554688 27.785156 604.210938 C 27.003906 606.640625 26.90625 609.800781 25.246094 611.199219 C 23.585938 612.597656 19.148438 614.457031 17.4375 613.527344 C 3.683594 604.902344 -2.664062 588.179688 1.925781 572.605469 C 40.160156 453.089844 78.386719 333.542969 116.601562 214 C 121.769531 197.132812 125.96875 179.859375 131.1875 162.949219 C 133.625 155.121094 136.792969 147.53125 140.652344 140.296875 C 145.832031 130.988281 150.167969 130.828125 157.257812 138.957031 C 165.792969 148.113281 170.332031 160.277344 169.882812 172.785156 C 168.484375 207.492188 166.722656 242.246094 165.175781 276.953125 C 164.246094 297.648438 163.003906 318.589844 162.644531 339.492188 C 161.714844 397.941406 161.195312 456.449219 160.527344 514.945312 C 160.4375 516.953125 161.324219 518.882812 162.90625 520.113281 C 167.992188 510.855469 172.601562 501.339844 176.71875 491.613281 C 216.703125 382.003906 256.738281 272.457031 296.054688 162.636719 C 314.320312 111.738281 330.972656 60.277344 348.347656 9.066406 C 352.175781 -2.210938 354.554688 -2.730469 362.359375 6.214844 C 372.828125 16.921875 377.113281 32.226562 373.738281 46.820312 C 354.035156 147.582031 335.300781 248.546875 316.835938 349.566406 C 302.914062 423.171875 294.035156 497.640625 290.246094 572.453125 C 290.585938 584.320312 292.964844 596.046875 297.285156 607.113281 C 298.902344 613.148438 305.121094 616.738281 311.167969 615.109375 C 312.339844 614.796875 313.449219 614.289062 314.457031 613.628906 C 325.382812 608.089844 335.429688 600.964844 344.246094 592.476562 C 359.140625 576.234375 371.867188 557.980469 385.632812 540.757812 C 388.222656 537.597656 393.550781 532.589844 395 533.359375 C 399.347656 535.40625 402.675781 539.148438 404.203125 543.703125 C 405.335938 550.511719 404.464844 557.5 401.726562 563.828125 C 388.351562 591.117188 368.886719 614.976562 344.828125 633.550781 C 338.738281 638.089844 332.140625 641.886719 325.175781 644.878906 C 304.84375 653.773438 288.039062 648.085938 276.8125 628.894531 C 265.867188 610.191406 260.347656 588.796875 260.878906 567.136719 C 261.339844 539.667969 263.308594 512.246094 266.777344 484.996094 C 274.695312 424.890625 284 364.941406 292.898438 304.945312 C 295.066406 290.25 297.753906 275.664062 300.242188 261.03125 L 299.152344 260.410156 " clip-rule="nonzero"/></clipPath><clipPath id="a22b7cc188"><rect x="0" width="405" y="0" height="649"/></clipPath><clipPath id="bc3aaccafa"><path d="M 1901 180 L 2441 180 L 2441 550 L 1901 550 Z M 1901 180 " clip-rule="nonzero"/></clipPath><clipPath id="1d848cd25e"><path d="M 1922.316406 473.582031 C 1921.90625 485.21875 1926.816406 489.097656 1935.972656 485.527344 C 1943.007812 482.71875 1949.675781 479.070312 1955.835938 474.664062 C 1977.664062 459.148438 1990.441406 436.535156 2000.367188 412.226562 C 2003.4375 405.546875 2000.507812 397.660156 1993.839844 394.59375 C 1992.5 393.984375 1991.082031 393.59375 1989.613281 393.441406 C 1984.035156 392.601562 1978.324219 393.484375 1973.265625 395.980469 C 1943.578125 414.183594 1928.523438 442.175781 1922.316406 473.574219 M 2194.136719 491.117188 C 2196.414062 499.851562 2196.875 508.550781 2206.75 511.339844 C 2216.625 514.128906 2223.253906 509.21875 2228.273438 501.460938 C 2231.089844 497.664062 2233.390625 493.503906 2235.101562 489.097656 C 2242.757812 464.785156 2250.203125 440.425781 2257.132812 415.90625 C 2257.339844 412.476562 2255.972656 409.136719 2253.402344 406.847656 C 2243.675781 398.519531 2235.507812 398.519531 2228.570312 409.226562 C 2219.316406 423.820312 2211.277344 439.144531 2204.519531 455.058594 C 2200.261719 466.886719 2196.8125 478.980469 2194.175781 491.265625 M 2340.191406 512.417969 C 2334.761719 520.796875 2330.152344 529.121094 2324.367188 536.417969 C 2310.453125 554.0625 2294.15625 553.753906 2282.363281 534.558594 C 2276.355469 523.132812 2271.386719 511.1875 2267.519531 498.875 C 2266.308594 494.996094 2265.359375 491.035156 2264.667969 487.027344 C 2257.839844 499.132812 2251.945312 510.980469 2244.707031 521.996094 C 2237.46875 533.011719 2228.3125 544.957031 2212.378906 542.996094 C 2196.445312 541.039062 2185.847656 529.441406 2179.332031 514.808594 C 2177.929688 511.648438 2176.742188 508.390625 2174.980469 503.992188 C 2172.34375 506.789062 2170.324219 509.167969 2168.15625 511.078125 C 2164.085938 515.476562 2159.6875 519.574219 2155.019531 523.335938 C 2129.570312 541.847656 2105.519531 535.75 2092.953125 507.039062 C 2088.894531 496.683594 2085.433594 486.097656 2082.605469 475.332031 C 2079.1875 477.921875 2075.988281 480.761719 2072.261719 483.039062 C 2061.003906 491.105469 2049.179688 498.355469 2036.882812 504.710938 C 2021.371094 511.75 2011.023438 505.589844 2005.84375 489.199219 C 2004.347656 484.027344 2003.304688 478.851562 2002.117188 473.683594 C 1992.339844 484.027344 1982.875 494.375 1972.835938 504.203125 C 1968.507812 508.332031 1963.621094 511.808594 1958.304688 514.546875 C 1946.257812 522.316406 1930.253906 519.414062 1921.675781 507.929688 C 1902.84375 486.71875 1896.078125 462.617188 1904.714844 434.996094 C 1912.398438 409.316406 1928.113281 386.785156 1949.554688 370.703125 C 1969.109375 355.90625 1983.742188 357.976562 1999.675781 376.808594 C 2002.316406 379.90625 2004.855469 383.117188 2008.054688 387.15625 C 2010.023438 381.515625 2011.671875 376.808594 2013.222656 372.359375 C 2023.570312 375.101562 2031.636719 386.996094 2032.105469 399 C 2033.035156 420.414062 2033.554688 441.933594 2035.722656 463.296875 C 2037.273438 478.5 2045.402344 481.449219 2057.804688 472.34375 C 2064.695312 467.285156 2071.132812 461.648438 2077.046875 455.480469 C 2079.429688 452.671875 2080.675781 449.070312 2080.566406 445.394531 C 2076.328125 365.0625 2090.132812 286.703125 2105.449219 208.441406 C 2107.789062 196.488281 2115.882812 186.460938 2127.070312 181.652344 C 2129.398438 180.460938 2133.898438 179.53125 2134.828125 180.621094 C 2136.398438 183.113281 2136.957031 186.109375 2136.375 189 C 2131.878906 216.46875 2126.03125 243.667969 2122.621094 271.296875 C 2117.453125 312.683594 2112.894531 354.058594 2110.617188 395.753906 C 2110.136719 417.542969 2111.957031 439.316406 2116.042969 460.71875 C 2118.261719 471.503906 2122.730469 481.710938 2129.128906 490.667969 C 2136.316406 501.371094 2147.023438 501.78125 2155.667969 492.324219 C 2165.464844 481.671875 2172.824219 469.015625 2177.242188 455.238281 C 2184.367188 433.738281 2192.785156 412.6875 2202.433594 392.183594 C 2207.609375 380.746094 2216.398438 370.511719 2231.550781 371.492188 C 2243.496094 372.421875 2254.773438 383.238281 2261.5 401.179688 L 2312.089844 186.929688 C 2325.4375 191.476562 2333.222656 205.34375 2330.144531 219.097656 C 2320.628906 266.53125 2311.210938 313.914062 2301.023438 361.183594 C 2296.675781 381.566406 2289.960938 401.429688 2285.511719 421.800781 C 2279.984375 450.742188 2280.433594 480.511719 2286.851562 509.269531 C 2287.371094 512.167969 2290.320312 516.308594 2292.699219 516.667969 C 2296.078125 516.476562 2299.195312 514.808594 2301.234375 512.117188 C 2316.410156 493.777344 2327.367188 472.324219 2333.304688 449.273438 C 2337.210938 433.988281 2341.910156 418.914062 2347.367188 404.117188 C 2350.464844 395.222656 2353.316406 395.0625 2359.78125 402.199219 C 2368.378906 410.398438 2370.867188 423.132812 2365.992188 433.957031 C 2359.261719 452.730469 2356.835938 473.0625 2352.746094 492.765625 C 2351.40625 499.332031 2354.503906 502.492188 2361.171875 503.523438 C 2372.027344 505.03125 2382.984375 501.613281 2391.070312 494.214844 C 2400.617188 485.957031 2409.285156 476.742188 2416.933594 466.695312 C 2422.101562 459.816406 2425.828125 460.277344 2430.996094 465.976562 C 2442.222656 478.230469 2443.871094 486.25 2432.855469 498.203125 C 2422.300781 509.890625 2410.105469 519.976562 2396.648438 528.152344 C 2376.945312 539.738281 2358.0625 534.359375 2343.789062 516.515625 C 2342.648438 515.117188 2341.359375 513.828125 2339.910156 512.277344 " clip-rule="nonzero"/></clipPath><clipPath id="2bf3d5e358"><path d="M 0 0 L 540 0 L 540 370 L 0 370 Z M 0 0 " clip-rule="nonzero"/></clipPath><clipPath id="9280c87d39"><path d="M 21.316406 293.582031 C 20.90625 305.21875 25.816406 309.097656 34.972656 305.527344 C 42.007812 302.71875 48.675781 299.070312 54.835938 294.664062 C 76.664062 279.148438 89.441406 256.535156 99.367188 232.226562 C 102.4375 225.546875 99.507812 217.660156 92.839844 214.59375 C 91.5 213.984375 90.082031 213.59375 88.613281 213.441406 C 83.035156 212.601562 77.324219 213.484375 72.265625 215.980469 C 42.578125 234.183594 27.523438 262.175781 21.316406 293.574219 M 293.136719 311.117188 C 295.414062 319.851562 295.875 328.550781 305.75 331.339844 C 315.625 334.128906 322.253906 329.21875 327.273438 321.460938 C 330.089844 317.664062 332.390625 313.503906 334.101562 309.097656 C 341.757812 284.785156 349.203125 260.425781 356.132812 235.90625 C 356.339844 232.476562 354.972656 229.136719 352.402344 226.847656 C 342.675781 218.519531 334.507812 218.519531 327.570312 229.226562 C 318.316406 243.820312 310.277344 259.144531 303.519531 275.058594 C 299.261719 286.886719 295.8125 298.980469 293.175781 311.265625 M 439.191406 332.417969 C 433.761719 340.796875 429.152344 349.121094 423.367188 356.417969 C 409.453125 374.0625 393.15625 373.753906 381.363281 354.558594 C 375.355469 343.132812 370.386719 331.1875 366.519531 318.875 C 365.308594 314.996094 364.359375 311.035156 363.667969 307.027344 C 356.839844 319.132812 350.945312 330.980469 343.707031 341.996094 C 336.46875 353.011719 327.3125 364.957031 311.378906 362.996094 C 295.445312 361.039062 284.847656 349.441406 278.332031 334.808594 C 276.929688 331.648438 275.742188 328.390625 273.980469 323.992188 C 271.34375 326.789062 269.324219 329.167969 267.15625 331.078125 C 263.085938 335.476562 258.6875 339.574219 254.019531 343.335938 C 228.570312 361.847656 204.519531 355.75 191.953125 327.039062 C 187.894531 316.683594 184.433594 306.097656 181.605469 295.332031 C 178.1875 297.921875 174.988281 300.761719 171.261719 303.039062 C 160.003906 311.105469 148.179688 318.355469 135.882812 324.710938 C 120.371094 331.75 110.023438 325.589844 104.84375 309.199219 C 103.347656 304.027344 102.304688 298.851562 101.117188 293.683594 C 91.339844 304.027344 81.875 314.375 71.835938 324.203125 C 67.507812 328.332031 62.621094 331.808594 57.304688 334.546875 C 45.257812 342.316406 29.253906 339.414062 20.675781 327.929688 C 1.84375 306.71875 -4.921875 282.617188 3.714844 254.996094 C 11.398438 229.316406 27.113281 206.785156 48.554688 190.703125 C 68.109375 175.90625 82.742188 177.976562 98.675781 196.808594 C 101.316406 199.90625 103.855469 203.117188 107.054688 207.15625 C 109.023438 201.515625 110.671875 196.808594 112.222656 192.359375 C 122.570312 195.101562 130.636719 206.996094 131.105469 219 C 132.035156 240.414062 132.554688 261.933594 134.722656 283.296875 C 136.273438 298.5 144.402344 301.449219 156.804688 292.34375 C 163.695312 287.285156 170.132812 281.648438 176.046875 275.480469 C 178.429688 272.671875 179.675781 269.070312 179.566406 265.394531 C 175.328125 185.0625 189.132812 106.703125 204.449219 28.441406 C 206.789062 16.488281 214.882812 6.460938 226.070312 1.652344 C 228.398438 0.460938 232.898438 -0.46875 233.828125 0.621094 C 235.398438 3.113281 235.957031 6.109375 235.375 9 C 230.878906 36.46875 225.03125 63.667969 221.621094 91.296875 C 216.453125 132.683594 211.894531 174.058594 209.617188 215.753906 C 209.136719 237.542969 210.957031 259.316406 215.042969 280.71875 C 217.261719 291.503906 221.730469 301.710938 228.128906 310.667969 C 235.316406 321.371094 246.023438 321.78125 254.667969 312.324219 C 264.464844 301.671875 271.824219 289.015625 276.242188 275.238281 C 283.367188 253.738281 291.785156 232.6875 301.433594 212.183594 C 306.609375 200.746094 315.398438 190.511719 330.550781 191.492188 C 342.496094 192.421875 353.773438 203.238281 360.5 221.179688 L 411.089844 6.929688 C 424.4375 11.476562 432.222656 25.34375 429.144531 39.097656 C 419.628906 86.53125 410.210938 133.914062 400.023438 181.183594 C 395.675781 201.566406 388.960938 221.429688 384.511719 241.800781 C 378.984375 270.742188 379.433594 300.511719 385.851562 329.269531 C 386.371094 332.167969 389.320312 336.308594 391.699219 336.667969 C 395.078125 336.476562 398.195312 334.808594 400.234375 332.117188 C 415.410156 313.777344 426.367188 292.324219 432.304688 269.273438 C 436.210938 253.988281 440.910156 238.914062 446.367188 224.117188 C 449.464844 215.222656 452.316406 215.0625 458.78125 222.199219 C 467.378906 230.398438 469.867188 243.132812 464.992188 253.957031 C 458.261719 272.730469 455.835938 293.0625 451.746094 312.765625 C 450.40625 319.332031 453.503906 322.492188 460.171875 323.523438 C 471.027344 325.03125 481.984375 321.613281 490.070312 314.214844 C 499.617188 305.957031 508.285156 296.742188 515.933594 286.695312 C 521.101562 279.816406 524.828125 280.277344 529.996094 285.976562 C 541.222656 298.230469 542.871094 306.25 531.855469 318.203125 C 521.300781 329.890625 509.105469 339.976562 495.648438 348.152344 C 475.945312 359.738281 457.0625 354.359375 442.789062 336.515625 C 441.648438 335.117188 440.359375 333.828125 438.910156 332.277344 " clip-rule="nonzero"/></clipPath><clipPath id="f18bc33e68"><rect x="0" width="540" y="0" height="370"/></clipPath><clipPath id="2f5a885193"><path d="M 2337.203125 336.472656 L 2392 336.472656 L 2392 380.402344 L 2337.203125 380.402344 Z M 2337.203125 336.472656 " clip-rule="nonzero"/></clipPath><clipPath id="43b8412a6e"><path d="M 2369.578125 336.664062 C 2383.234375 336.664062 2394.671875 354.71875 2390.273438 363.714844 C 2389.203125 365.5625 2387.542969 367.003906 2385.5625 367.800781 C 2377.546875 371.320312 2369.167969 374.109375 2361.300781 378.148438 C 2356.105469 381.578125 2349.105469 380.128906 2345.6875 374.929688 C 2345.457031 374.582031 2345.25 374.230469 2345.070312 373.859375 C 2342.660156 370.183594 2340.570312 366.304688 2338.8125 362.273438 C 2336.203125 358.078125 2337.492188 352.558594 2341.691406 349.949219 C 2342.308594 349.558594 2342.980469 349.25 2343.667969 349.03125 C 2353.34375 344.582031 2362.960938 340.03125 2369.53125 336.875 " clip-rule="nonzero"/></clipPath><clipPath id="191afa50ca"><path d="M 0.203125 0.59375 L 55 0.59375 L 55 44.402344 L 0.203125 44.402344 Z M 0.203125 0.59375 " clip-rule="nonzero"/></clipPath><clipPath id="8deebf53fd"><path d="M 32.578125 0.664062 C 46.234375 0.664062 57.671875 18.71875 53.273438 27.714844 C 52.203125 29.5625 50.542969 31.003906 48.5625 31.800781 C 40.546875 35.320312 32.167969 38.109375 24.300781 42.148438 C 19.105469 45.578125 12.105469 44.128906 8.6875 38.929688 C 8.457031 38.582031 8.25 38.230469 8.070312 37.859375 C 5.660156 34.183594 3.570312 30.304688 1.8125 26.273438 C -0.796875 22.078125 0.492188 16.558594 4.691406 13.949219 C 5.308594 13.558594 5.980469 13.25 6.667969 13.03125 C 16.34375 8.582031 25.960938 4.03125 32.53125 0.875 " clip-rule="nonzero"/></clipPath><clipPath id="97bbbe2a95"><rect x="0" width="55" y="0" height="45"/></clipPath></defs><g clip-path="url(#703e73d974)"><path fill="#ffffff" d="M 0.40625 0 L 2844.09375 0 L 2844.09375 669.5 L 0.40625 669.5 Z M 0.40625 0 " fill-opacity="1" fill-rule="nonzero"/></g><g clip-path="url(#97273b4bc4)"><g clip-path="url(#54c6936bd2)"><g transform="matrix(1, 0, 0, 1, 5, 54)"><g clip-path="url(#ee226c98ff)"><g clip-path="url(#cc61c454b8)"><g clip-path="url(#855ba47d9d)"><rect x="-630.845" width="4096.44" fill="#114b81" height="964.440003" y="-201.345" fill-opacity="1"/></g></g></g></g></g></g><g clip-path="url(#4f3063acc6)"><g clip-path="url(#286c6345d1)"><g transform="matrix(1, 0, 0, 1, 595, 175)"><g clip-path="url(#3733408842)"><g clip-path="url(#8bd49d74ab)"><g clip-path="url(#e2ccd855ef)"><rect x="-1220.845" width="4096.44" fill="#114b81" height="964.440003" y="-322.345" fill-opacity="1"/></g></g></g></g></g></g><g clip-path="url(#43bea7b7c7)"><g clip-path="url(#129e9bb20d)"><g transform="matrix(1, 0, 0, 1, 1114, 175)"><g clip-path="url(#15f1b8ccf8)"><g clip-path="url(#47a40d54aa)"><g clip-path="url(#2c8b8dedb2)"><rect x="-1739.845" width="4096.44" fill="#114b81" height="964.440003" y="-322.345" fill-opacity="1"/></g></g></g></g></g></g><g clip-path="url(#2426206d48)"><g clip-path="url(#80d5ebc810)"><g transform="matrix(1, 0, 0, 1, 1240, 358)"><g clip-path="url(#638b4dd359)"><g clip-path="url(#1fb16daf90)"><g clip-path="url(#636cd709b8)"><rect x="-1865.845" width="4096.44" fill="#114b81" height="964.440003" y="-505.345" fill-opacity="1"/></g></g></g></g></g></g><g clip-path="url(#9080d085c2)"><g clip-path="url(#f044c33303)"><g transform="matrix(1, 0, 0, 1, 460, 382)"><g clip-path="url(#71ebaf39f5)"><g clip-path="url(#57d7352a01)"><g clip-path="url(#5a77c25ef2)"><rect x="-1085.845" width="4096.44" fill="#114b81" height="964.440003" y="-529.345" fill-opacity="1"/></g></g></g></g></g></g><g clip-path="url(#8fb03fa1db)"><g clip-path="url(#ca00d0a3c9)"><g transform="matrix(1, 0, 0, 1, 1247, 336)"><g clip-path="url(#c18cbc5878)"><g clip-path="url(#343f5839b2)"><g clip-path="url(#ab2ca7e3e3)"><rect x="-1872.845" width="4096.44" fill="#114b81" height="964.440003" y="-483.345" fill-opacity="1"/></g></g></g></g></g></g><g clip-path="url(#d75064e97d)"><g clip-path="url(#dcdc626af3)"><g transform="matrix(1, 0, 0, 1, 2400, 333)"><g clip-path="url(#9f9ed89bfa)"><g clip-path="url(#b94ea7c3e8)"><g clip-path="url(#747207c509)"><rect x="-3025.845" width="4096.44" fill="#114b81" height="964.440003" y="-480.345" fill-opacity="1"/></g></g></g></g></g></g><g clip-path="url(#0a122e5066)"><g clip-path="url(#6cdad667ed)"><g transform="matrix(1, 0, 0, 1, 1549, 5)"><g clip-path="url(#a22b7cc188)"><g clip-path="url(#64d85bad34)"><g clip-path="url(#b6e16572de)"><rect x="-2174.845" width="4096.44" fill="#114b81" height="964.440003" y="-152.345" fill-opacity="1"/></g></g></g></g></g></g><g clip-path="url(#bc3aaccafa)"><g clip-path="url(#1d848cd25e)"><g transform="matrix(1, 0, 0, 1, 1901, 180)"><g clip-path="url(#f18bc33e68)"><g clip-path="url(#2bf3d5e358)"><g clip-path="url(#9280c87d39)"><rect x="-2526.845" width="4096.44" fill="#114b81" height="964.440003" y="-327.345" fill-opacity="1"/></g></g></g></g></g></g><g clip-path="url(#2f5a885193)"><g clip-path="url(#43b8412a6e)"><g transform="matrix(1, 0, 0, 1, 2337, 336)"><g clip-path="url(#97bbbe2a95)"><g clip-path="url(#191afa50ca)"><g clip-path="url(#8deebf53fd)"><rect x="-2962.845" width="4096.44" fill="#114b81" height="964.440003" y="-483.345" fill-opacity="1"/></g></g></g></g></g></g></svg>