<svg viewBox="0 0 250 245" xmlns="http://www.w3.org/2000/svg" fill-rule="evenodd" clip-rule="evenodd" stroke-linejoin="round" stroke-miterlimit="2"><path d="M94.543 201.26c11.719 0 21.222 9.503 21.222 21.225 0 11.719-9.503 21.216-21.222 21.216-11.721 0-21.224-9.497-21.224-21.216 0-11.722 9.503-21.225 21.224-21.225M94.543 129.512c11.719 0 21.222 9.503 21.222 21.224 0 11.719-9.503 21.217-21.222 21.217-11.721 0-21.224-9.498-21.224-21.217 0-11.721 9.503-21.224 21.224-21.224" fill="#0d5071" fill-rule="nonzero"></path><path fill="#0d5071" d="M115.766 150.736H73.325v71.745h42.441z"></path><path d="M1.574 150.735c0 11.719 9.503 21.222 21.222 21.222h71.747c11.719 0 21.222-9.503 21.222-21.222 0-11.721-9.503-21.224-21.222-21.224H22.796c-11.719 0-21.222 9.503-21.222 21.224" fill="#1999d6" fill-rule="nonzero"></path><path d="M150.826 43.924c-11.721 0-21.224-9.503-21.224-21.225 0-11.719 9.503-21.217 21.224-21.217 11.72 0 21.222 9.498 21.222 21.217 0 11.722-9.503 21.225-21.222 21.225M150.826 115.672c-11.721 0-21.224-9.503-21.224-21.224 0-11.72 9.503-21.217 21.224-21.217 11.72 0 21.222 9.498 21.222 21.217 0 11.72-9.503 21.224-21.222 21.224" fill="#ee9521" fill-rule="nonzero"></path><path fill="#ee9521" d="M129.606 22.698h42.44v71.747h-42.44z"></path><path d="M129.606 94.451c0 11.719 9.503 21.222 21.222 21.222h71.747c11.719 0 21.222-9.503 21.222-21.222 0-11.721-9.503-21.224-21.222-21.224h-71.747c-11.72 0-21.222 9.503-21.222 21.224" fill="#facc23" fill-rule="nonzero"></path><path d="M44.017 94.451c0 11.719-9.503 21.222-21.225 21.222-11.719 0-21.216-9.503-21.216-21.222 0-11.721 9.497-21.224 21.216-21.224 11.722 0 21.225 9.503 21.225 21.224M115.764 94.451c0 11.719-9.503 21.222-21.225 21.222-11.719 0-21.216-9.503-21.216-21.222 0-11.721 9.497-21.224 21.216-21.224 11.722 0 21.225 9.503 21.225 21.224" fill="#bb2028" fill-rule="nonzero"></path><path fill="#bb2028" d="M94.542 73.231H22.797v42.439h71.745z"></path><path d="M73.32 22.703v71.744c0 11.722 9.504 21.225 21.225 21.225 11.72 0 21.217-9.503 21.217-21.225V22.703c0-11.722-9.498-21.225-21.217-21.225-11.721 0-21.224 9.503-21.224 21.225" fill="#e2462e" fill-rule="nonzero"></path><path d="M201.353 150.735c0-11.721 9.503-21.224 21.222-21.224 11.721 0 21.22 9.503 21.22 21.224 0 11.719-9.499 21.222-21.22 21.222-11.719 0-21.222-9.503-21.222-21.222M129.606 150.735c0-11.721 9.503-21.224 21.222-21.224 11.721 0 21.219 9.503 21.219 21.224 0 11.719-9.498 21.222-21.22 21.222-11.718 0-21.221-9.503-21.221-21.222" fill="#39a949" fill-rule="nonzero"></path><path fill="#39a949" d="M150.83 129.512h71.745v42.44H150.83z"></path><path d="M129.606 150.735v71.745c0 11.721 9.503 21.222 21.222 21.222 11.721 0 21.219-9.5 21.219-21.222v-71.745c0-11.721-9.498-21.224-21.22-21.224-11.718 0-21.221 9.503-21.221 21.224" fill="#92c13e" fill-rule="nonzero"></path><path d="M26.329 1.482c13.672 0 24.753 11.084 24.753 24.753 0 13.672-11.081 24.756-24.753 24.756S1.576 39.907 1.576 26.235c0-13.669 11.081-24.753 24.753-24.753" fill="#e2462e" fill-rule="nonzero"></path><path d="M26.329 194.192c13.672 0 24.753 11.087 24.753 24.755 0 13.67-11.081 24.756-24.753 24.756S1.576 232.616 1.576 218.947c0-13.668 11.081-24.755 24.753-24.755" fill="#1999d6" fill-rule="nonzero"></path><path d="M219.04 194.192c13.673 0 24.752 11.087 24.752 24.755 0 13.67-11.079 24.756-24.753 24.756-13.671 0-24.753-11.087-24.753-24.756 0-13.668 11.082-24.755 24.753-24.755" fill="#92c13e" fill-rule="nonzero"></path><path d="M219.04 1.482c13.673 0 24.752 11.084 24.752 24.753 0 13.672-11.079 24.756-24.753 24.756-13.671 0-24.753-11.084-24.753-24.756 0-13.669 11.082-24.753 24.753-24.753" fill="#facc23" fill-rule="nonzero"></path><path d="M94.543 171.95H73.318v15.101h21.225c8.386 0 15.934-3.608 21.222-9.34v-26.985c0 11.722-9.503 21.225-21.222 21.225" fill="#0a394b" fill-rule="nonzero"></path><path d="M58.107 94.784v-.343c0 8.394 3.617 15.934 9.34 21.224h27.096c-11.719 0-21.222-9.503-21.222-21.224V73.224H58.107v21.56z" fill="#8a1726" fill-rule="nonzero"></path><path d="M129.606 67.348v27.096c0-11.719 9.503-21.222 21.222-21.222h21.219V58.008h-21.22c-8.39 0-15.933 3.616-21.221 9.34" fill="#e55225" fill-rule="nonzero"></path><path d="M172.047 150.727v21.225h15.215v-21.225c0-8.386-3.617-15.933-9.341-21.222h-27.095c11.718 0 21.221 9.503 21.221 21.222" fill="#106735" fill-rule="nonzero"></path><path d="M335.437 100.074h30.157c9.026 0 13.365-4.876 13.365-11.915 0-6.864-4.514-12.103-13.365-12.103h-30.157v24.018zm0-50.381h28.532c7.401 0 11.376-3.79 11.376-9.387 0-5.598-3.975-9.934-11.012-9.934h-28.896v19.32zM364.87 1.48c25.284 0 45.866 11.196 45.866 35.392 0 9.572-2.886 19.503-13.9 24.56 11.734 6.32 17.512 18.056 17.512 29.432 0 28.352-25.819 36.838-48.934 37.014h-65.188V1.48h64.644zM546.715 111.45c-14.265 14.087-31.6 19.687-50.74 19.687-49.656 0-68.977-31.24-69.16-65.554-.18-32.502 21.668-66.99 69.16-66.99 18.237 0 34.672 6.317 48.936 20.223L522.88 40.487c-9.029-8.667-18.418-11.017-26.905-11.017-24.377 0-33.952 19.862-33.769 36.297.183 16.431 8.85 35.03 33.769 35.03 8.487 0 20.765-3.612 29.791-12.823l20.949 23.476zM670.774 111.45c-14.265 14.087-31.6 19.687-50.74 19.687-49.656 0-68.977-31.24-69.157-65.554-.183-32.502 21.665-66.99 69.157-66.99 18.237 0 34.666 6.317 48.936 20.223L646.94 40.487C637.91 31.82 628.52 29.47 620.034 29.47c-24.377 0-33.952 19.862-33.769 36.297.184 16.431 8.85 35.03 33.77 35.03 8.486 0 20.764-3.612 29.793-12.823l20.946 23.476zM305.63 187.067h9.1c3.031 0 7.063-.786 7.063-4.738-.038-3.653-3.74-5.152-6.897-5.152h-9.266v9.89zm0-13.17h9.266c3.492 0 6.025-1.288 6.025-4.324 0-3.24-2.618-4.901-6.19-4.901h-9.101v9.224zm9.1-12.509c5.276 0 9.764 2.62 9.764 8.146 0 2.657-1.537 4.904-4.323 5.982 3.536.996 5.236 4.238 5.236 6.942 0 6.188-5.19 8.017-10.677 8.017h-12.717v-29.087h12.717zM354.789 161.428v17.456c0 8.061-5.44 12.132-11.802 12.132-6.19 0-11.928-3.99-11.928-12.132v-17.456h3.578v17.456c0 5.776 3.862 8.807 8.35 8.807 4.489 0 8.226-3.16 8.226-8.85v-17.456h3.532l.044.043zM372.24 164.008c-3.696 0-7.645 1.45-7.645 4.989 0 3.152 3.616 4.068 7.896 4.775 5.82.915 11.551 2.073 11.551 8.641-.041 6.526-6.273 8.647-11.843 8.647-5.154 0-10.057-1.87-12.301-6.733l2.994-1.744c1.868 3.446 5.776 5.108 9.349 5.108 3.531 0 8.226-1.12 8.226-5.4.044-3.616-4.03-4.655-8.391-5.32-5.61-.873-11.051-2.16-11.051-8.067-.085-6.062 6.106-8.141 11.13-8.141 4.326 0 8.436.877 11.015 5.28l-2.744 1.703c-1.58-2.536-4.945-3.697-8.185-3.738" fill="#231f20" fill-rule="nonzero"></path><path fill="#231f20" d="M389.777 161.39h3.617v29.083h-3.617z"></path><path d="M403.656 161.388l17.827 22.274v-22.274h3.573v29.084h-2.492l-17.87-22.186v22.186h-3.573v-29.084h2.535zM432.787 161.388h20.443v3.325h-16.87v9.1h16.163v3.364h-16.164v9.849h17.536v3.446h-21.108v-29.084zM469.603 164.008c-3.702 0-7.649 1.45-7.649 4.989 0 3.152 3.617 4.068 7.899 4.775 5.817.915 11.551 2.073 11.551 8.641-.044 6.526-6.276 8.647-11.845 8.647-5.151 0-10.055-1.87-12.3-6.733l2.993-1.744c1.868 3.446 5.776 5.108 9.35 5.108 3.532 0 8.227-1.12 8.227-5.4.044-3.616-4.032-4.655-8.391-5.32-5.61-.873-11.056-2.16-11.056-8.067-.08-6.062 6.11-8.141 11.136-8.141 4.323 0 8.435.877 11.014 5.28l-2.744 1.703c-1.579-2.536-4.943-3.697-8.185-3.738M497.194 164.008c-3.696 0-7.645 1.45-7.645 4.989 0 3.152 3.616 4.068 7.895 4.775 5.817.915 11.552 2.073 11.552 8.641-.042 6.526-6.276 8.647-11.846 8.647-5.15 0-10.055-1.87-12.299-6.733l2.992-1.744c1.87 3.446 5.779 5.108 9.351 5.108 3.532 0 8.226-1.12 8.226-5.4.044-3.616-4.031-4.655-8.39-5.32-5.611-.873-11.052-2.16-11.052-8.067-.085-6.062 6.106-8.141 11.131-8.141 4.323 0 8.435.877 11.015 5.28l-2.745 1.703c-1.579-2.536-4.942-3.697-8.185-3.738M538.748 190.935c-10.264 0-15.124-7.107-15.168-14.838-.085-7.684 4.948-15.168 15.168-15.168 3.867 0 7.685 1.458 10.638 4.368l-2.494 2.326c-2.24-2.208-5.19-3.242-8.144-3.242-7.81 0-11.592 5.652-11.551 11.672.085 5.905 3.696 11.43 11.551 11.43 2.954 0 6.07-1.16 8.27-3.364l2.536 2.49c-2.951 2.91-6.818 4.326-10.806 4.326M554.871 161.388h20.443v3.325h-16.868v9.1h16.166v3.364h-16.166v9.849h17.533v3.446h-21.108v-29.084zM584.46 161.388l17.826 22.274v-22.274h3.568v29.084h-2.49l-17.868-22.186v22.186h-3.573v-29.084h2.536zM610.428 164.63v-3.245h23.438v3.245h-9.932v25.847h-3.575V164.63h-9.931zM679.843 170.78c.041-2.908-2.038-6.148-6.235-6.148h-9.598v12.13h9.436c4.36 0 6.397-2.702 6.397-5.983m-8.765 9.222h-7.068v10.473h-3.617v-29.087h13.215c6.568 0 9.852 4.574 9.852 9.31.041 4.406-2.368 8.52-8.35 9.018l9.593 10.759h-4.568l-9.057-10.473zM636.921 161.388h20.443v3.325h-16.87v9.1h16.166v3.364h-16.166v9.849h17.536v3.446H636.92v-29.084zM315.395 243.578c-10.264 0-15.123-7.104-15.167-14.837-.085-7.682 4.945-15.168 15.167-15.168 3.867 0 7.685 1.46 10.638 4.37l-2.494 2.326c-2.242-2.208-5.193-3.245-8.144-3.245-7.813 0-11.595 5.652-11.55 11.678.084 5.902 3.696 11.425 11.55 11.425 2.951 0 6.067-1.159 8.27-3.361l2.536 2.489c-2.95 2.91-6.818 4.323-10.806 4.323M343.818 216.858c-7.398 0-11.216 5.446-11.216 11.802 0 5.897 3.57 11.636 11.216 11.636 7.645 0 11.094-5.902 11.094-11.636.042-5.9-3.49-11.716-11.094-11.802m14.71 11.802c-.043 7.604-4.782 15.044-14.754 15.044-9.97 0-14.789-7.396-14.789-15.044 0-8.433 5.647-15.124 14.833-15.124 9.848.044 14.752 7.44 14.71 15.124M383.875 223.425c.044-2.91-2.038-6.15-6.232-6.15h-9.598v12.132h9.433c4.36 0 6.397-2.7 6.397-5.982m-8.765 9.222h-7.065v10.473h-3.617v-29.087h13.215c6.568 0 9.849 4.574 9.849 9.307.041 4.409-2.368 8.52-8.355 9.02l9.6 10.76h-4.57l-9.057-10.473zM407.229 217.4h-9.642v12.965h9.642c8.562 0 8.562-12.965 0-12.965m-9.642 25.72h-3.57v-29.086h13.212c13.38 0 13.38 19.653 0 19.697h-9.642v9.39zM435.444 216.858c-7.398 0-11.221 5.446-11.221 11.802 0 5.897 3.575 11.636 11.221 11.636 7.648 0 11.095-5.902 11.095-11.636.04-5.9-3.49-11.716-11.095-11.802m14.711 11.802c-.041 7.604-4.78 15.044-14.752 15.044-9.973 0-14.791-7.396-14.791-15.044 0-8.433 5.649-15.124 14.832-15.124 9.849.044 14.752 7.44 14.711 15.124M475.503 223.425c.04-2.91-2.038-6.15-6.235-6.15h-9.599v12.132h9.436c4.36 0 6.398-2.7 6.398-5.982m-8.766 9.222h-7.068v10.473h-3.616v-29.087h13.215c6.567 0 9.851 4.574 9.851 9.307.041 4.409-2.368 8.52-8.35 9.02l9.594 10.76h-4.569l-9.057-10.473zM495.533 214.036l-13.05 29.085h3.95l2.824-6.398h16.62l2.869 6.398h3.908L499.6 214.036h-4.068zm2.038 3.653l6.895 15.71h-13.795l6.9-15.71zM511.367 214.032v3.245h9.931v25.844h3.576v-25.844h9.926v-3.245h-23.433z" fill="#231f20" fill-rule="nonzero"></path><path fill="#231f20" d="M539.375 214.035h3.617v29.084h-3.617z"></path><path d="M563.723 216.858c-7.398 0-11.218 5.446-11.218 11.802 0 5.897 3.57 11.636 11.218 11.636 7.646 0 11.095-5.902 11.095-11.636.041-5.9-3.49-11.716-11.095-11.802m14.711 11.802c-.043 7.604-4.782 15.044-14.755 15.044-9.97 0-14.788-7.396-14.788-15.044 0-8.433 5.647-15.124 14.832-15.124 9.849.044 14.753 7.44 14.711 15.124M604.696 214.036v22.272l-17.827-22.272h-2.536v29.085h3.578v-22.192l17.868 22.192h2.49v-29.085h-3.573z" fill="#231f20" fill-rule="nonzero"></path></svg>