<svg xmlns="http://www.w3.org/2000/svg" xmlns:xlink="http://www.w3.org/1999/xlink" width="2245" zoomAndPan="magnify" viewBox="0 0 1683.75 594.749999" height="793" preserveAspectRatio="xMidYMid meet" version="1.0"><defs><clipPath id="32b94984d5"><path d="M 0.230469 0 L 1683.269531 0 L 1683.269531 594.5 L 0.230469 594.5 Z M 0.230469 0 " clip-rule="nonzero"/></clipPath><clipPath id="a0c22dc432"><path d="M 0.230469 0 L 1682.5625 0 L 1682.5625 594.25 L 0.230469 594.25 Z M 0.230469 0 " clip-rule="nonzero"/></clipPath><clipPath id="1c01073ed3"><path d="M 726.011719 251 L 825.265625 251 L 825.265625 354 L 726.011719 354 Z M 726.011719 251 " clip-rule="nonzero"/></clipPath><clipPath id="863e41be9c"><path d="M 726.363281 302.738281 L 726.363281 302.367188 C 726.363281 273.804688 746.789062 251.199219 775.726562 251.199219 C 809.554688 251.199219 825.085938 275.984375 825.085938 304.734375 C 825.085938 305.054688 825.085938 305.371094 825.085938 305.71875 C 825.085938 309.070312 822.375 311.78125 819.023438 311.78125 L 759.449219 311.78125 C 762.164062 322.445312 769.929688 327.871094 780.621094 327.871094 C 787.375 327.871094 793.011719 325.746094 798.757812 321.117188 C 800.964844 319.335938 804.15625 319.441406 806.335938 321.25 L 816.496094 329.652344 C 819.261719 331.941406 819.421875 336.117188 816.894531 338.671875 C 807.800781 347.765625 795.488281 353.5625 778.835938 353.5625 C 748.09375 353.5625 726.390625 333.136719 726.390625 302.738281 M 791.046875 294.230469 C 792.054688 294.230469 792.851562 293.324219 792.667969 292.339844 C 790.910156 282.582031 784.796875 276.488281 775.9375 276.488281 C 767.453125 276.488281 761.523438 282.6875 759.316406 292.261719 C 759.078125 293.273438 759.902344 294.230469 760.914062 294.230469 Z M 791.046875 294.230469 " clip-rule="nonzero"/></clipPath><clipPath id="de9fb4af3e"><path d="M 0.164062 0.175781 L 99.242188 0.175781 L 99.242188 102.613281 L 0.164062 102.613281 Z M 0.164062 0.175781 " clip-rule="nonzero"/></clipPath><clipPath id="407ba1fd30"><path d="M 0.363281 51.738281 L 0.363281 51.367188 C 0.363281 22.804688 20.789062 0.199219 49.726562 0.199219 C 83.554688 0.199219 99.085938 24.984375 99.085938 53.734375 C 99.085938 54.054688 99.085938 54.371094 99.085938 54.71875 C 99.085938 58.070312 96.375 60.78125 93.023438 60.78125 L 33.449219 60.78125 C 36.164062 71.445312 43.929688 76.871094 54.621094 76.871094 C 61.375 76.871094 67.011719 74.746094 72.757812 70.117188 C 74.964844 68.335938 78.15625 68.441406 80.335938 70.25 L 90.496094 78.652344 C 93.261719 80.941406 93.421875 85.117188 90.894531 87.671875 C 81.800781 96.765625 69.488281 102.5625 52.835938 102.5625 C 22.09375 102.5625 0.390625 82.136719 0.390625 51.738281 M 65.046875 43.230469 C 66.054688 43.230469 66.851562 42.324219 66.667969 41.339844 C 64.910156 31.582031 58.796875 25.488281 49.9375 25.488281 C 41.453125 25.488281 35.523438 31.6875 33.316406 41.261719 C 33.078125 42.273438 33.902344 43.230469 34.914062 43.230469 Z M 65.046875 43.230469 " clip-rule="nonzero"/></clipPath><clipPath id="b7422a9d4f"><rect x="0" width="100" y="0" height="103"/></clipPath><clipPath id="40b94778b7"><path d="M 835.335938 251 L 934.589844 251 L 934.589844 354 L 835.335938 354 Z M 835.335938 251 " clip-rule="nonzero"/></clipPath><clipPath id="58eb20dcf9"><path d="M 835.777344 302.738281 L 835.777344 302.367188 C 835.777344 273.804688 856.203125 251.199219 885.140625 251.199219 C 918.96875 251.199219 934.527344 275.984375 934.527344 304.734375 C 934.527344 304.921875 934.527344 305.078125 934.527344 305.265625 C 934.527344 308.855469 931.601562 311.78125 928.011719 311.78125 L 868.863281 311.78125 C 871.574219 322.445312 879.339844 327.871094 890.03125 327.871094 C 896.683594 327.871094 902.238281 325.824219 907.878906 321.328125 C 910.273438 319.441406 913.675781 319.519531 916.015625 321.460938 L 925.511719 329.335938 C 928.488281 331.808594 928.703125 336.304688 925.9375 339.015625 C 916.867188 347.925781 904.660156 353.5625 888.222656 353.5625 C 857.480469 353.5625 835.777344 333.136719 835.777344 302.738281 M 900.058594 294.230469 C 901.308594 294.230469 902.214844 293.085938 901.972656 291.863281 C 900.113281 282.394531 894.046875 276.515625 885.351562 276.515625 C 877.027344 276.515625 871.148438 282.5 868.863281 291.78125 C 868.570312 293.003906 869.476562 294.230469 870.75 294.230469 Z M 900.058594 294.230469 " clip-rule="nonzero"/></clipPath><clipPath id="644c473fd6"><path d="M 0.558594 0.175781 L 99.589844 0.175781 L 99.589844 102.613281 L 0.558594 102.613281 Z M 0.558594 0.175781 " clip-rule="nonzero"/></clipPath><clipPath id="198a8cd0fd"><path d="M 0.777344 51.738281 L 0.777344 51.367188 C 0.777344 22.804688 21.203125 0.199219 50.140625 0.199219 C 83.96875 0.199219 99.527344 24.984375 99.527344 53.734375 C 99.527344 53.921875 99.527344 54.078125 99.527344 54.265625 C 99.527344 57.855469 96.601562 60.78125 93.011719 60.78125 L 33.863281 60.78125 C 36.574219 71.445312 44.339844 76.871094 55.03125 76.871094 C 61.683594 76.871094 67.238281 74.824219 72.878906 70.328125 C 75.273438 68.441406 78.675781 68.519531 81.015625 70.460938 L 90.511719 78.335938 C 93.488281 80.808594 93.703125 85.304688 90.9375 88.015625 C 81.867188 96.925781 69.660156 102.5625 53.222656 102.5625 C 22.480469 102.5625 0.777344 82.136719 0.777344 51.738281 M 65.058594 43.230469 C 66.308594 43.230469 67.214844 42.085938 66.972656 40.863281 C 65.113281 31.394531 59.046875 25.515625 50.351562 25.515625 C 42.027344 25.515625 36.148438 31.5 33.863281 40.78125 C 33.570312 42.003906 34.476562 43.230469 35.75 43.230469 Z M 65.058594 43.230469 " clip-rule="nonzero"/></clipPath><clipPath id="fcb64e2e26"><rect x="0" width="100" y="0" height="103"/></clipPath><clipPath id="35f9cdb419"><path d="M 629.632812 218.132812 L 716.660156 218.132812 L 716.660156 353 L 629.632812 353 Z M 629.632812 218.132812 " clip-rule="nonzero"/></clipPath><clipPath id="7471797c1b"><path d="M 707.296875 262.261719 L 684.824219 262.261719 C 681.367188 262.261719 678.574219 259.46875 678.574219 256.011719 L 678.574219 255.238281 C 678.574219 249.257812 678.226562 245.453125 677.535156 243.855469 C 676.84375 242.261719 675.140625 241.464844 672.402344 241.464844 C 670.195312 241.464844 668.519531 242.207031 667.402344 243.671875 C 666.285156 245.132812 665.753906 247.339844 665.753906 250.265625 C 665.753906 254.230469 666.019531 257.15625 666.578125 259.015625 C 667.136719 260.878906 668.785156 262.898438 671.550781 265.132812 C 674.316406 267.367188 680.007812 270.558594 688.601562 274.8125 C 700.0625 280.425781 707.589844 285.691406 711.179688 290.640625 C 714.769531 295.585938 716.550781 302.792969 716.550781 312.234375 C 716.550781 322.792969 715.195312 330.746094 712.457031 336.144531 C 709.714844 341.542969 705.140625 345.664062 698.734375 348.5625 C 692.324219 351.460938 684.582031 352.925781 675.515625 352.925781 C 665.488281 352.925781 656.898438 351.355469 649.769531 348.246094 C 642.644531 345.132812 637.75 340.824219 635.0625 335.480469 C 632.378906 330.132812 631.046875 322.046875 631.046875 311.25 C 631.046875 307.792969 633.839844 305 637.296875 305 L 659.769531 305 C 663.226562 305 666.019531 307.792969 666.019531 311.25 L 666.019531 313.191406 C 666.019531 320.160156 666.472656 324.679688 667.351562 326.78125 C 668.226562 328.882812 669.984375 329.921875 672.589844 329.921875 C 675.382812 329.921875 677.351562 329.230469 678.464844 327.820312 C 679.582031 326.410156 680.117188 323.457031 680.117188 318.960938 C 680.117188 312.765625 679.398438 308.882812 677.960938 307.339844 C 676.472656 305.773438 668.8125 301.144531 654.984375 293.457031 C 643.386719 286.941406 636.3125 281.039062 633.785156 275.71875 C 631.261719 270.398438 629.984375 264.097656 629.984375 256.78125 C 629.984375 246.410156 631.367188 238.777344 634.078125 233.859375 C 636.792969 228.9375 641.445312 225.132812 648.015625 222.472656 C 654.585938 219.816406 662.164062 218.484375 670.832031 218.484375 C 679.425781 218.484375 686.738281 219.574219 692.773438 221.757812 C 698.8125 223.9375 703.441406 226.835938 706.65625 230.398438 C 709.875 233.964844 711.84375 237.316406 712.535156 240.375 C 713.226562 243.433594 713.574219 248.21875 713.574219 254.734375 L 713.574219 256.011719 C 713.574219 259.46875 710.78125 262.261719 707.324219 262.261719 " clip-rule="nonzero"/></clipPath><clipPath id="dcfddeb65d"><path d="M 0.964844 0.308594 L 87.566406 0.308594 L 87.566406 135 L 0.964844 135 Z M 0.964844 0.308594 " clip-rule="nonzero"/></clipPath><clipPath id="dc657885d4"><path d="M 78.296875 44.261719 L 55.824219 44.261719 C 52.367188 44.261719 49.574219 41.46875 49.574219 38.011719 L 49.574219 37.238281 C 49.574219 31.257812 49.226562 27.453125 48.535156 25.855469 C 47.84375 24.261719 46.140625 23.464844 43.402344 23.464844 C 41.195312 23.464844 39.519531 24.207031 38.402344 25.671875 C 37.285156 27.132812 36.753906 29.339844 36.753906 32.265625 C 36.753906 36.230469 37.019531 39.15625 37.578125 41.015625 C 38.136719 42.878906 39.785156 44.898438 42.550781 47.132812 C 45.316406 49.367188 51.007812 52.558594 59.601562 56.8125 C 71.0625 62.425781 78.589844 67.691406 82.179688 72.640625 C 85.769531 77.585938 87.550781 84.792969 87.550781 94.234375 C 87.550781 104.792969 86.195312 112.746094 83.457031 118.144531 C 80.714844 123.542969 76.140625 127.664062 69.734375 130.5625 C 63.324219 133.460938 55.582031 134.925781 46.515625 134.925781 C 36.488281 134.925781 27.898438 133.355469 20.769531 130.246094 C 13.644531 127.132812 8.75 122.824219 6.0625 117.480469 C 3.378906 112.132812 2.046875 104.046875 2.046875 93.25 C 2.046875 89.792969 4.839844 87 8.296875 87 L 30.769531 87 C 34.226562 87 37.019531 89.792969 37.019531 93.25 L 37.019531 95.191406 C 37.019531 102.160156 37.472656 106.679688 38.351562 108.78125 C 39.226562 110.882812 40.984375 111.921875 43.589844 111.921875 C 46.382812 111.921875 48.351562 111.230469 49.464844 109.820312 C 50.582031 108.410156 51.117188 105.457031 51.117188 100.960938 C 51.117188 94.765625 50.398438 90.882812 48.960938 89.339844 C 47.472656 87.773438 39.8125 83.144531 25.984375 75.457031 C 14.386719 68.941406 7.3125 63.039062 4.785156 57.71875 C 2.261719 52.398438 0.984375 46.097656 0.984375 38.78125 C 0.984375 28.410156 2.367188 20.777344 5.078125 15.859375 C 7.792969 10.9375 12.445312 7.132812 19.015625 4.472656 C 25.585938 1.816406 33.164062 0.484375 41.832031 0.484375 C 50.425781 0.484375 57.738281 1.574219 63.773438 3.757812 C 69.8125 5.9375 74.441406 8.835938 77.65625 12.398438 C 80.875 15.964844 82.84375 19.316406 83.535156 22.375 C 84.226562 25.433594 84.574219 30.21875 84.574219 36.734375 L 84.574219 38.011719 C 84.574219 41.46875 81.78125 44.261719 78.324219 44.261719 " clip-rule="nonzero"/></clipPath><clipPath id="8c504b17cf"><rect x="0" width="88" y="0" height="135"/></clipPath><clipPath id="cce84229a5"><path d="M 945.378906 219 L 1053 219 L 1053 354 L 945.378906 354 Z M 945.378906 219 " clip-rule="nonzero"/></clipPath><clipPath id="0d20ba804e"><path d="M 1047.425781 219.175781 L 1024.152344 219.175781 C 1021.09375 219.175781 1018.621094 221.648438 1018.621094 224.707031 L 1018.621094 265.292969 C 1012.105469 257.875 1003.433594 251.199219 988.59375 251.199219 C 965.457031 251.199219 945.5625 270.558594 945.5625 302.367188 L 945.5625 302.738281 C 945.5625 334.015625 965.644531 353.378906 988.78125 353.378906 C 1002.636719 353.378906 1010.988281 347.046875 1017.503906 339.496094 C 1018.007812 338.511719 1017.984375 337.421875 1015.828125 336.808594 C 1011.519531 335.585938 977.769531 333.457031 979.207031 301.4375 C 979.234375 300.636719 979.285156 299.894531 979.367188 299.121094 C 979.367188 299.070312 979.367188 299.015625 979.367188 298.988281 C 980.589844 288.273438 988.167969 280.851562 997.558594 280.054688 L 999.019531 279.972656 C 999.101562 279.972656 1000.800781 280.027344 1000.882812 280.027344 C 1007.238281 280.238281 1013.300781 280.90625 1013.300781 280.90625 C 1034.367188 281.703125 1041.09375 299.867188 1041.09375 299.867188 C 1048.460938 325.210938 1038.726562 319.601562 1038.726562 319.601562 C 1025.722656 309.972656 1020.617188 307.898438 1018.59375 307.714844 C 1016.09375 307.421875 1016.015625 307.765625 1016.015625 307.765625 L 1018.300781 308.988281 C 1047.875 329.652344 1041.707031 339.785156 1043.0625 345.503906 C 1044.445312 351.277344 1047.398438 351.222656 1047.398438 351.222656 C 1050.457031 351.222656 1052.929688 348.75 1052.929688 345.664062 L 1052.929688 224.734375 C 1052.929688 221.675781 1050.457031 219.203125 1047.398438 219.203125 " clip-rule="nonzero"/></clipPath><clipPath id="70460b4e77"><path d="M 0.429688 0.0273438 L 108 0.0273438 L 108 134.613281 L 0.429688 134.613281 Z M 0.429688 0.0273438 " clip-rule="nonzero"/></clipPath><clipPath id="57a88985a5"><path d="M 102.425781 0.175781 L 79.152344 0.175781 C 76.09375 0.175781 73.621094 2.648438 73.621094 5.707031 L 73.621094 46.292969 C 67.105469 38.875 58.433594 32.199219 43.59375 32.199219 C 20.457031 32.199219 0.5625 51.558594 0.5625 83.367188 L 0.5625 83.738281 C 0.5625 115.015625 20.644531 134.378906 43.78125 134.378906 C 57.636719 134.378906 65.988281 128.046875 72.503906 120.496094 C 73.007812 119.511719 72.984375 118.421875 70.828125 117.808594 C 66.519531 116.585938 32.769531 114.457031 34.207031 82.4375 C 34.234375 81.636719 34.285156 80.894531 34.367188 80.121094 C 34.367188 80.070312 34.367188 80.015625 34.367188 79.988281 C 35.589844 69.273438 43.167969 61.851562 52.558594 61.054688 L 54.019531 60.972656 C 54.101562 60.972656 55.800781 61.027344 55.882812 61.027344 C 62.238281 61.238281 68.300781 61.90625 68.300781 61.90625 C 89.367188 62.703125 96.09375 80.867188 96.09375 80.867188 C 103.460938 106.210938 93.726562 100.601562 93.726562 100.601562 C 80.722656 90.972656 75.617188 88.898438 73.59375 88.714844 C 71.09375 88.421875 71.015625 88.765625 71.015625 88.765625 L 73.300781 89.988281 C 102.875 110.652344 96.707031 120.785156 98.0625 126.503906 C 99.445312 132.277344 102.398438 132.222656 102.398438 132.222656 C 105.457031 132.222656 107.929688 129.75 107.929688 126.664062 L 107.929688 5.734375 C 107.929688 2.675781 105.457031 0.203125 102.398438 0.203125 " clip-rule="nonzero"/></clipPath><clipPath id="9cbf4c738d"><rect x="0" width="108" y="0" height="135"/></clipPath><clipPath id="c691f8d7b0"><path d="M 995.722656 363 L 1005.792969 363 L 1005.792969 376 L 995.722656 376 Z M 995.722656 363 " clip-rule="nonzero"/></clipPath><clipPath id="28af4f5c45"><path d="M 995.828125 363.351562 L 1000.296875 363.351562 C 1002.902344 363.351562 1005.003906 363.988281 1005.003906 366.4375 C 1005.003906 367.5 1004.394531 368.722656 1003.433594 369.121094 L 1003.433594 369.203125 C 1004.632812 369.546875 1005.5625 370.453125 1005.5625 372.101562 C 1005.5625 374.652344 1003.355469 375.769531 1000.667969 375.769531 L 995.800781 375.769531 Z M 1000.21875 368.21875 C 1001.28125 368.21875 1001.785156 367.710938 1001.785156 366.96875 C 1001.785156 366.222656 1001.28125 365.902344 1000.21875 365.902344 L 999.101562 365.902344 L 999.101562 368.246094 Z M 1000.457031 373.269531 C 1001.761719 373.269531 1002.371094 372.820312 1002.371094 371.886719 C 1002.371094 370.957031 1001.761719 370.636719 1000.457031 370.636719 L 999.128906 370.636719 L 999.128906 373.269531 Z M 1000.457031 373.269531 " clip-rule="nonzero"/></clipPath><clipPath id="1a20875a3e"><path d="M 0.722656 0.207031 L 10.644531 0.207031 L 10.644531 12.921875 L 0.722656 12.921875 Z M 0.722656 0.207031 " clip-rule="nonzero"/></clipPath><clipPath id="00285630ca"><path d="M 0.828125 0.351562 L 5.296875 0.351562 C 7.902344 0.351562 10.003906 0.988281 10.003906 3.4375 C 10.003906 4.5 9.394531 5.722656 8.433594 6.121094 L 8.433594 6.203125 C 9.632812 6.546875 10.5625 7.453125 10.5625 9.101562 C 10.5625 11.652344 8.355469 12.769531 5.667969 12.769531 L 0.800781 12.769531 Z M 5.21875 5.21875 C 6.28125 5.21875 6.785156 4.710938 6.785156 3.96875 C 6.785156 3.222656 6.28125 2.902344 5.21875 2.902344 L 4.101562 2.902344 L 4.101562 5.246094 Z M 5.457031 10.269531 C 6.761719 10.269531 7.371094 9.820312 7.371094 8.886719 C 7.371094 7.957031 6.761719 7.636719 5.457031 7.636719 L 4.128906 7.636719 L 4.128906 10.269531 Z M 5.457031 10.269531 " clip-rule="nonzero"/></clipPath><clipPath id="0e0eaca71c"><rect x="0" width="11" y="0" height="13"/></clipPath><clipPath id="b50437f3d7"><path d="M 1005.074219 363 L 1016.582031 363 L 1016.582031 376 L 1005.074219 376 Z M 1005.074219 363 " clip-rule="nonzero"/></clipPath><clipPath id="5eb06a9923"><path d="M 1009.339844 371.488281 L 1005.589844 363.351562 L 1009.101562 363.351562 L 1010.03125 365.957031 C 1010.324219 366.886719 1010.644531 367.765625 1010.960938 368.722656 L 1011.042969 368.722656 C 1011.359375 367.738281 1011.679688 366.886719 1012.027344 365.957031 L 1012.957031 363.351562 L 1016.386719 363.351562 L 1012.636719 371.488281 L 1012.636719 375.769531 L 1009.339844 375.769531 Z M 1009.339844 371.488281 " clip-rule="nonzero"/></clipPath><clipPath id="5bb8fff59c"><path d="M 0.40625 0.207031 L 11.441406 0.207031 L 11.441406 12.921875 L 0.40625 12.921875 Z M 0.40625 0.207031 " clip-rule="nonzero"/></clipPath><clipPath id="2649d8b332"><path d="M 4.339844 8.488281 L 0.589844 0.351562 L 4.101562 0.351562 L 5.03125 2.957031 C 5.324219 3.886719 5.644531 4.765625 5.960938 5.722656 L 6.042969 5.722656 C 6.359375 4.738281 6.679688 3.886719 7.027344 2.957031 L 7.957031 0.351562 L 11.386719 0.351562 L 7.636719 8.488281 L 7.636719 12.769531 L 4.339844 12.769531 Z M 4.339844 8.488281 " clip-rule="nonzero"/></clipPath><clipPath id="1bc61f0ee2"><rect x="0" width="12" y="0" height="13"/></clipPath><clipPath id="92610f2215"><path d="M 1021 363 L 1031.6875 363 L 1031.6875 376 L 1021 376 Z M 1021 363 " clip-rule="nonzero"/></clipPath><clipPath id="5a3b469dc1"><path d="M 1021.414062 363.351562 L 1025.882812 363.351562 C 1028.488281 363.351562 1030.589844 363.988281 1030.589844 366.4375 C 1030.589844 367.5 1029.976562 368.722656 1029.019531 369.121094 L 1029.019531 369.203125 C 1030.21875 369.546875 1031.175781 370.453125 1031.175781 372.101562 C 1031.175781 374.652344 1028.96875 375.769531 1026.28125 375.769531 L 1021.414062 375.769531 Z M 1025.800781 368.21875 C 1026.867188 368.21875 1027.371094 367.710938 1027.371094 366.96875 C 1027.371094 366.222656 1026.867188 365.902344 1025.800781 365.902344 L 1024.683594 365.902344 L 1024.683594 368.246094 Z M 1026.042969 373.269531 C 1027.34375 373.269531 1027.957031 372.820312 1027.957031 371.886719 C 1027.957031 370.957031 1027.34375 370.636719 1026.042969 370.636719 L 1024.710938 370.636719 L 1024.710938 373.269531 Z M 1026.042969 373.269531 " clip-rule="nonzero"/></clipPath><clipPath id="2cd3908a41"><path d="M 0.238281 0.207031 L 10.316406 0.207031 L 10.316406 12.921875 L 0.238281 12.921875 Z M 0.238281 0.207031 " clip-rule="nonzero"/></clipPath><clipPath id="7a06597a64"><path d="M 0.414062 0.351562 L 4.882812 0.351562 C 7.488281 0.351562 9.589844 0.988281 9.589844 3.4375 C 9.589844 4.5 8.976562 5.722656 8.019531 6.121094 L 8.019531 6.203125 C 9.21875 6.546875 10.175781 7.453125 10.175781 9.101562 C 10.175781 11.652344 7.96875 12.769531 5.28125 12.769531 L 0.414062 12.769531 Z M 4.800781 5.21875 C 5.867188 5.21875 6.371094 4.710938 6.371094 3.96875 C 6.371094 3.222656 5.867188 2.902344 4.800781 2.902344 L 3.683594 2.902344 L 3.683594 5.246094 Z M 5.042969 10.269531 C 6.34375 10.269531 6.957031 9.820312 6.957031 8.886719 C 6.957031 7.957031 6.34375 7.636719 5.042969 7.636719 L 3.710938 7.636719 L 3.710938 10.269531 Z M 5.042969 10.269531 " clip-rule="nonzero"/></clipPath><clipPath id="51df778a83"><rect x="0" width="11" y="0" height="13"/></clipPath><clipPath id="49b139b71b"><path d="M 1032.40625 363 L 1043 363 L 1043 376.367188 L 1032.40625 376.367188 Z M 1032.40625 363 " clip-rule="nonzero"/></clipPath><clipPath id="9b205c0057"><path d="M 1032.582031 369.652344 C 1032.582031 365.476562 1035.457031 363.109375 1038.59375 363.109375 C 1040.242188 363.109375 1041.574219 363.882812 1042.449219 364.761719 L 1040.722656 366.859375 C 1040.109375 366.328125 1039.5 365.929688 1038.648438 365.929688 C 1037.183594 365.929688 1035.933594 367.261719 1035.933594 369.519531 C 1035.933594 371.859375 1037 373.164062 1038.621094 373.164062 C 1039.578125 373.164062 1040.351562 372.660156 1040.882812 372.101562 L 1042.609375 374.175781 C 1041.546875 375.398438 1040.109375 376.011719 1038.515625 376.011719 C 1035.351562 376.011719 1032.582031 373.910156 1032.582031 369.652344 " clip-rule="nonzero"/></clipPath><clipPath id="977c6e1c26"><path d="M 0.515625 0 L 10.832031 0 L 10.832031 13.160156 L 0.515625 13.160156 Z M 0.515625 0 " clip-rule="nonzero"/></clipPath><clipPath id="6576943186"><path d="M 0.582031 6.652344 C 0.582031 2.476562 3.457031 0.109375 6.59375 0.109375 C 8.242188 0.109375 9.574219 0.882812 10.449219 1.761719 L 8.722656 3.859375 C 8.109375 3.328125 7.5 2.929688 6.648438 2.929688 C 5.183594 2.929688 3.933594 4.261719 3.933594 6.519531 C 3.933594 8.859375 5 10.164062 6.621094 10.164062 C 7.578125 10.164062 8.351562 9.660156 8.882812 9.101562 L 10.609375 11.175781 C 9.546875 12.398438 8.109375 13.011719 6.515625 13.011719 C 3.351562 13.011719 0.582031 10.910156 0.582031 6.652344 " clip-rule="nonzero"/></clipPath><clipPath id="5298c887b6"><rect x="0" width="11" y="0" height="14"/></clipPath><clipPath id="f35c0d1405"><path d="M 1043 363 L 1053.261719 363 L 1053.261719 376.367188 L 1043 376.367188 Z M 1043 363 " clip-rule="nonzero"/></clipPath><clipPath id="d310946b71"><path d="M 1043.035156 369.652344 C 1043.035156 365.476562 1045.910156 363.109375 1049.046875 363.109375 C 1050.695312 363.109375 1052.023438 363.882812 1052.902344 364.761719 L 1051.175781 366.859375 C 1050.5625 366.328125 1049.949219 365.929688 1049.101562 365.929688 C 1047.636719 365.929688 1046.386719 367.261719 1046.386719 369.519531 C 1046.386719 371.859375 1047.449219 373.164062 1049.074219 373.164062 C 1050.03125 373.164062 1050.800781 372.660156 1051.332031 372.101562 L 1053.0625 374.175781 C 1052 375.398438 1050.5625 376.011719 1048.964844 376.011719 C 1045.800781 376.011719 1043.035156 373.910156 1043.035156 369.652344 " clip-rule="nonzero"/></clipPath><clipPath id="efdb02275d"><path d="M 0 0 L 10.144531 0 L 10.144531 13.160156 L 0 13.160156 Z M 0 0 " clip-rule="nonzero"/></clipPath><clipPath id="eebf7b5d85"><path d="M 0.0351562 6.652344 C 0.0351562 2.476562 2.910156 0.109375 6.046875 0.109375 C 7.695312 0.109375 9.023438 0.882812 9.902344 1.761719 L 8.175781 3.859375 C 7.5625 3.328125 6.949219 2.929688 6.101562 2.929688 C 4.636719 2.929688 3.386719 4.261719 3.386719 6.519531 C 3.386719 8.859375 4.449219 10.164062 6.074219 10.164062 C 7.03125 10.164062 7.800781 9.660156 8.332031 9.101562 L 10.0625 11.175781 C 9 12.398438 7.5625 13.011719 5.964844 13.011719 C 2.800781 13.011719 0.0351562 10.910156 0.0351562 6.652344 " clip-rule="nonzero"/></clipPath><clipPath id="a6b41399ba"><rect x="0" width="11" y="0" height="14"/></clipPath><clipPath id="aa446fcf41"><rect x="0" width="1684" y="0" height="595"/></clipPath></defs><g clip-path="url(#32b94984d5)"><path fill="#ffffff" d="M 0.230469 0 L 1683.269531 0 L 1683.269531 594.5 L 0.230469 594.5 Z M 0.230469 0 " fill-opacity="1" fill-rule="nonzero"/><g transform="matrix(1, 0, 0, 1, 0.000000000000000028, -0.000000000000006289)"><g clip-path="url(#aa446fcf41)"><g clip-path="url(#a0c22dc432)"><path fill="#ffffff" d="M 0.230469 0 L 1682.5625 0 L 1682.5625 594.25 L 0.230469 594.25 Z M 0.230469 0 " fill-opacity="1" fill-rule="nonzero"/></g><g clip-path="url(#1c01073ed3)"><g clip-path="url(#863e41be9c)"><g transform="matrix(1, 0, 0, 1, 726, 251)"><g clip-path="url(#b7422a9d4f)"><g clip-path="url(#de9fb4af3e)"><g clip-path="url(#407ba1fd30)"><rect x="-1338.885" width="2909.52" fill="#6286a6" y="-467.489" height="1027.727999" fill-opacity="1"/></g></g></g></g></g></g><g clip-path="url(#40b94778b7)"><g clip-path="url(#58eb20dcf9)"><g transform="matrix(1, 0, 0, 1, 835, 251)"><g clip-path="url(#fcb64e2e26)"><g clip-path="url(#644c473fd6)"><g clip-path="url(#198a8cd0fd)"><rect x="-1447.885" width="2909.52" fill="#6286a6" y="-467.489" height="1027.727999" fill-opacity="1"/></g></g></g></g></g></g><g clip-path="url(#35f9cdb419)"><g clip-path="url(#7471797c1b)"><g transform="matrix(1, 0, 0, 1, 629, 218)"><g clip-path="url(#8c504b17cf)"><g clip-path="url(#dcfddeb65d)"><g clip-path="url(#dc657885d4)"><rect x="-1241.885" width="2909.52" fill="#6286a6" y="-434.489" height="1027.727999" fill-opacity="1"/></g></g></g></g></g></g><g clip-path="url(#cce84229a5)"><g clip-path="url(#0d20ba804e)"><g transform="matrix(1, 0, 0, 1, 945, 219)"><g clip-path="url(#9cbf4c738d)"><g clip-path="url(#70460b4e77)"><g clip-path="url(#57a88985a5)"><rect x="-1557.885" width="2909.52" fill="#6286a6" y="-435.489" height="1027.727999" fill-opacity="1"/></g></g></g></g></g></g><g clip-path="url(#c691f8d7b0)"><g clip-path="url(#28af4f5c45)"><g transform="matrix(1, 0, 0, 1, 995, 363)"><g clip-path="url(#0e0eaca71c)"><g clip-path="url(#1a20875a3e)"><g clip-path="url(#00285630ca)"><rect x="-1607.885" width="2909.52" fill="#6286a6" y="-579.489" height="1027.727999" fill-opacity="1"/></g></g></g></g></g></g><g clip-path="url(#b50437f3d7)"><g clip-path="url(#5eb06a9923)"><g transform="matrix(1, 0, 0, 1, 1005, 363)"><g clip-path="url(#1bc61f0ee2)"><g clip-path="url(#5bb8fff59c)"><g clip-path="url(#2649d8b332)"><rect x="-1617.885" width="2909.52" fill="#6286a6" y="-579.489" height="1027.727999" fill-opacity="1"/></g></g></g></g></g></g><g clip-path="url(#92610f2215)"><g clip-path="url(#5a3b469dc1)"><g transform="matrix(1, 0, 0, 1, 1021, 363)"><g clip-path="url(#51df778a83)"><g clip-path="url(#2cd3908a41)"><g clip-path="url(#7a06597a64)"><rect x="-1633.885" width="2909.52" fill="#6286a6" y="-579.489" height="1027.727999" fill-opacity="1"/></g></g></g></g></g></g><g clip-path="url(#49b139b71b)"><g clip-path="url(#9b205c0057)"><g transform="matrix(1, 0, 0, 1, 1032, 363)"><g clip-path="url(#5298c887b6)"><g clip-path="url(#977c6e1c26)"><g clip-path="url(#6576943186)"><rect x="-1644.885" width="2909.52" fill="#6286a6" y="-579.489" height="1027.727999" fill-opacity="1"/></g></g></g></g></g></g><g clip-path="url(#f35c0d1405)"><g clip-path="url(#d310946b71)"><g transform="matrix(1, 0, 0, 1, 1043, 363)"><g clip-path="url(#a6b41399ba)"><g clip-path="url(#efdb02275d)"><g clip-path="url(#eebf7b5d85)"><rect x="-1655.885" width="2909.52" fill="#6286a6" y="-579.489" height="1027.727999" fill-opacity="1"/></g></g></g></g></g></g></g></g></g></svg>